<svg width="183" height="116" viewBox="0 0 183 116" fill="none" xmlns="http://www.w3.org/2000/svg">
<path fill-rule="evenodd" clip-rule="evenodd" d="M314.468 84.6993C314.468 84.6993 297.947 54.2242 279.733 42.5765C261.519 30.9304 241.822 28.7955 225.936 36.9472C210.051 45.1005 190.565 55.387 183.575 51.1174C176.585 46.8462 154.559 13.6534 143.757 7.63649C132.955 1.61959 117.918 -3.81589 100.338 3.56062C82.7585 10.9371 36.7934 36.462 35.9475 38.7921C35.1 41.1208 39.231 39.9564 33.4067 43.9362C27.5823 47.9159 14.7682 56.942 14.7682 58.9791C14.7682 61.0163 28.0053 51.215 31.3953 51.0212C34.7837 50.8274 30.6543 53.2537 31.3953 54.0304C32.1362 54.8071 40.2916 48.6926 41.8801 48.4988C43.4685 48.305 40.6096 51.0227 42.1981 51.9932C43.7865 52.9637 57.6597 45.0058 59.6711 44.1315C61.6841 43.2571 60.2005 45.102 62.9545 44.2276C65.7085 43.3548 74.7097 36.0744 76.9326 37.9193C79.1571 39.7626 66.2642 47.8438 66.0511 49.0081C65.8396 50.1724 67.6395 48.8143 67.9576 49.3957C68.2756 49.9786 63.1398 55.6079 58.3728 58.6156C53.6074 61.6248 49.742 65.0696 49.5305 65.8464C49.3191 66.6231 51.8599 65.2154 51.4895 65.8944C51.119 66.5735 39.7342 75.7453 40.4227 77.3964C41.1112 79.046 54.8254 70.1656 57.7384 68.468C60.6513 66.7703 60.7038 68.7098 64.1463 66.6727C67.5887 64.634 76.2195 58.7147 78.1784 59.4419C80.1373 60.169 71.4017 66.3812 71.5066 67.4974C71.6131 68.6137 74.2589 66.3812 74.7359 66.8184C75.213 67.2556 65.9462 73.1267 65.8937 74.874C65.8413 76.6212 70.8181 72.35 71.4 72.7872C71.982 73.2244 68.2231 76.4259 68.8051 77.4941C69.387 78.5622 95.2809 59.3938 105.023 56.7737C114.765 54.1536 121.862 62.1115 128.004 70.071C134.146 78.0289 147.597 105.011 155.432 109.572C163.27 114.133 180.107 113.552 193.557 107.631C207.007 101.71 226.386 89.289 237.083 91.2285C247.779 93.1695 255.403 101.225 264.934 113.26C274.465 125.296 314.178 88.2208 314.469 84.7008L314.468 84.6993ZM47.1503 57.0697C47.9454 57.9921 41.5899 62.2137 36.9836 65.1733C32.3772 68.1329 29.1478 70.4135 28.1938 70.753C27.2397 71.0926 28.8823 70.1716 27.7692 70.0259C26.6578 69.8802 15.9091 77.8381 14.5846 78.0334C13.26 78.2272 21.2564 71.8227 21.9449 70.6569C22.6334 69.4926 18.45 71.5297 17.1271 72.1607C15.8042 72.7917 17.6566 69.7825 21.2564 67.0167C24.8562 64.2509 31.3707 61.5331 32.2166 61.3874C33.0641 61.2417 32.587 62.5036 33.646 62.5036C34.705 62.5036 36.2934 62.5036 38.1474 61.1936C40.0015 59.8836 45.3487 56.2434 47.1487 57.0682L47.1503 57.0697ZM7.33079 88.4657C7.91273 88.8052 1.82448 95.1631 0.236031 94.4345C-1.35242 93.7059 5.53087 87.8347 7.33079 88.4657ZM31.2641 78.7605C31.9526 79.3915 25.0152 85.6022 23.6399 85.0208C22.2629 84.4394 29.0413 78.5667 31.2641 78.7605ZM62.1873 73.1793C63.0873 74.1498 59.8579 77.3033 55.0385 81.4287C50.219 85.5541 49.1076 86.0394 48.5781 86.1851C48.0486 86.3308 49.2141 85.2627 48.3142 85.4084C47.4142 85.5541 42.6489 90.0672 40.9014 89.3881C39.1539 88.7091 45.7192 83.7588 46.7782 82.7402C47.8372 81.7216 54.7729 75.5094 56.945 74.3451C59.1153 73.1808 58.5334 74.4909 59.5399 74.2475C60.5464 74.0056 61.3398 73.0832 62.1873 73.1793Z" fill="url(#paint0_linear_20_9589)"/>
<defs>
<linearGradient id="paint0_linear_20_9589" x1="54.5992" y1="45.733" x2="280.184" y2="105.539" gradientUnits="userSpaceOnUse">
<stop stop-color="#A6D74A"/>
<stop offset="1" stop-color="#6E9722"/>
</linearGradient>
</defs>
</svg>
