<svg width="248" height="209" viewBox="0 0 248 209" fill="none" xmlns="http://www.w3.org/2000/svg">
<path d="M-13.4773 96.7397C-15.3573 97.1395 -9.64453 99.1323 -12.3437 98.9254L-15.6216 96.9828C-15.3333 98.3648 -17.1599 98.5539 -16.5483 97.1603C-14.6417 96.6552 -19.5885 95.4796 -17.6819 94.9746C-16.4942 96.5868 -13.6613 96.1462 -13.4773 96.7397ZM87.7437 155.274C87.6075 157.191 90.1514 155.671 91.0216 157.216C91.2643 155.059 89.1722 155.636 87.7437 155.274ZM142.647 188.538C143.711 185.899 139.82 186.196 138.817 184.815C138.732 187.369 141.539 186.489 142.647 188.538ZM4.52926 105.171C4.10233 106.855 6.27357 106.386 6.90837 106.581C7.3358 104.654 5.13638 105.954 4.52926 105.171ZM61.8409 138.409C58.5663 134.894 54.2838 132.416 49.8925 131.328C52.6648 134.606 58.0067 136.742 61.8409 138.409ZM102.763 161.934C98.3949 162.555 110.061 165.411 102.763 161.934V161.934ZM30.8906 117.826C31.4502 115.978 29.413 115.618 28.2767 114.763C28.0369 115.529 29.3028 117.733 30.8906 117.826ZM33.7282 115.087C34.2604 113.707 32.1956 113.876 31.6678 113.14C31.5588 114.649 32.5104 115.274 33.7282 115.087ZM148.985 182.605C149.546 179.85 146.711 181.319 145.417 179.765C144.753 180.885 147.37 182.496 148.985 182.605ZM161.805 190.203C157.468 188.541 159.457 186.571 161.805 190.203V190.203ZM7.00905 96.2248C9.63204 94.8727 8.84422 91.8625 11.4109 92.1725C11.6526 90.4386 9.21493 91.7794 8.36778 91.8829C6.55448 85.6006 -0.067217 88.0346 -4.13429 83.7471C-2.1038 87.3726 2.62675 90.7816 6.88744 91.0056C4.4253 91.3631 6.54193 91.7092 6.80354 93.1964C4.15548 93.8676 2.44096 91.0349 0.45613 90.9486C1.45679 93.4188 4.41834 94.75 6.95593 96.3145L7.00905 96.2248ZM-3.69397 88.4285C-3.72389 90.1063 -1.13032 90.19 -0.126798 91.2692C-0.096881 89.5914 -2.69046 89.5077 -3.69397 88.4285ZM-18.199 76.1385C-17.5904 76.1964 -16.8988 74.5474 -16.3455 75.7231C-16.0248 74.2176 -18.301 74.2614 -19.0139 73.415C-20.4176 73.9153 -17.1637 74.6326 -18.199 76.1385ZM37.7428 106.264C38.0362 105.166 37.5347 104.506 36.6092 104.078C35.1499 105.878 37.3209 105.529 37.7428 106.264ZM33.7059 100.178C33.3913 98.7196 32.2552 97.7435 30.8012 96.9424C29.9496 99.2232 33.1509 99.7882 33.7059 100.178ZM171.663 171.521C166.588 168.513 161.034 166.191 155.482 163.445C154.073 166.365 156.458 164.932 157.514 166.163C155.497 169.146 160.105 167.82 163.199 168.806C166.717 169.861 167.687 174.493 171.636 171.566L171.663 171.521ZM153.683 163.106C153.37 160.982 145.906 161.161 150.931 162.988C152.068 163.42 153.207 162.703 153.683 163.106ZM149.909 157.902C147.814 159.87 147.238 156.682 145.704 156.137C145.727 157.967 147.917 161.323 149.909 157.902ZM-10.7109 64.2265C-10.4493 65.7137 -5.98132 68.1194 -5.63543 67.2344C-8.35795 65.4998 -7.96056 65.3114 -10.7109 64.2265ZM-16.4894 55.5943C-16.6975 53.8359 -17.992 52.7054 -19.3926 51.6332C-18.8665 53.2166 -18.0489 54.6095 -16.4894 55.5943ZM3.46323 44.3476C6.933 43.0735 7.24089 47.7975 3.46323 44.3476V44.3476ZM9.05162 42.4518C6.91415 39.3685 3.63278 39.1193 1.59706 38.034C2.99412 40.7997 6.98848 41.8347 9.05162 42.4518ZM13.2298 44.2013C13.3124 42.6153 12.2285 42.0335 10.8522 42.0656C9.84155 44.4338 12.331 43.6687 13.2298 44.2013ZM15.9821 44.3186C16.4024 45.8393 17.7784 45.9887 18.9692 46.0888C19.1836 44.7626 16.8298 43.9127 15.9821 44.3186ZM44.3743 60.4182C45.1121 62.006 47.6233 63.5548 48.8403 63.7915C48.5809 61.2157 46.3345 59.6421 44.3743 60.4182ZM47.156 59.0996C46.7881 57.8521 45.5484 55.7852 43.9061 56.4469C44.8021 58.3101 45.8329 58.9816 47.156 59.0996ZM50.2271 58.6791L51.7074 59.5564C52.0261 59.0186 51.6029 58.8889 51.4181 58.6583C52.6636 57.8826 52.2918 58.51 52.4008 57.0001C51.6583 57.7106 50.9711 57.2428 50.2006 58.6634L50.2271 58.6791ZM22.3212 37.7205C21.051 37.6339 20.2317 37.0272 18.4074 36.1277C17.4543 36.2895 21.1785 39.95 22.3212 37.7205ZM24.6988 39.8563C21.0181 40.7632 23.8324 36.4362 24.6988 39.8563V39.8563ZM72.6354 63.0576C68.8327 58.9267 63.5424 57.4265 58.3358 53.8564C61.9004 57.9672 68.6152 61.7045 72.6354 63.0576ZM10.2777 25.3754C11.866 25.2268 11.7561 27.2204 13.5835 26.6079C13.3225 24.8183 12.029 23.2039 10.2777 25.3754ZM15.6984 27.8007C16.4081 30.2196 19.7981 29.0799 20.7459 31.5187C20.776 29.7805 21.8062 30.7543 22.6568 28.9574C18.978 28.8966 18.85 26.8224 15.6984 27.8007ZM60.4801 53.6134C60.6158 51.9982 58.1015 51.9615 57.2301 50.9607C56.5396 52.1259 59.6601 53.3696 60.4801 53.6134ZM18.7877 18.4895L20.268 19.3668C21.6742 17.7174 19.8474 17.967 19.4517 17.3692L18.7877 18.4895ZM71.4139 39.2624C70.4565 41.4805 73.3945 41.405 74.3186 42.4977C76.4365 42.239 71.2522 40.6804 71.4139 39.2624ZM28.7779 12.5414C28.0164 9.60739 24.6277 10.0818 21.642 7.5858C21.8747 10.267 26.1099 10.0519 28.7779 12.5414ZM72.3421 38.3592C72.2064 39.9743 74.7207 40.011 75.6185 41.0275C75.7542 39.4124 73.2399 39.3757 72.3421 38.3592ZM93.5036 44.1787C93.5603 42.3351 90.9109 43.6716 89.9085 42.0481C88.8752 42.5863 92.5231 44.7482 93.5036 44.1787ZM96.727 46.8762C97.8175 44.2525 94.3228 44.7853 94.0586 44.5682C93.7379 46.0736 96.0141 46.0298 96.727 46.8762ZM73.2297 31.437C73.0941 33.0521 75.6083 33.0889 76.5061 34.1054C77.2247 32.1696 73.6782 32.1267 73.2297 31.437ZM47.2725 15.3271C48.4369 15.3511 48.4898 15.3825 49.07 16.3924C50.5022 14.9401 47.8587 13.3735 47.2725 15.3271ZM62.2359 23.4684C64.1691 22.9185 66.0154 26.011 67.9753 25.3559C69.3601 21.2111 64.8343 21.1933 62.693 19.9849C62.1622 20.6997 64.0665 21.3438 62.2625 23.4235L62.2359 23.4684ZM77.5182 31.0113C77.5676 32.7362 80.2934 32.8982 81.3762 34.0244C82.1746 31.8937 78.7361 30.8248 77.5182 31.0113ZM43.2621 9.19605C43.3978 7.58091 40.8835 7.54418 39.9857 6.52769C39.0817 8.53523 42.1499 9.50576 43.2621 9.19605ZM47.4961 9.52532C49.1184 5.70297 44.0349 6.62633 41.6043 4.51976C42.3914 7.89282 46.7072 7.05947 47.4961 9.52532ZM86.0576 22.6896C86.715 24.7747 90.0223 25.2814 91.7131 26.7679C91.0823 24.638 87.7484 24.1761 86.0576 22.6896ZM52.355 1.98951C53.013 3.77222 56.2914 5.4729 58.0679 3.92186C56.3761 2.91923 54.9739 2.63324 52.355 1.98951ZM56.642 2.28963C58.2558 2.64046 59.5506 3.65002 61.7454 4.58742C61.5104 2.99489 58.391 1.20677 56.642 2.28963ZM76.6545 13.4231C73.141 10.1904 65.6604 5.57543 62.0362 4.75975C66.8211 7.47436 72.8211 11.333 76.6545 13.4231ZM162.883 65.2517C163.754 66.3131 164.709 65.0626 165.58 66.1239C165.9 65.2837 163.681 63.1815 162.883 65.2517ZM166.824 66.074C166.583 67.6264 168.965 67.6453 169.784 68.5543C170.025 67.0019 167.643 66.983 166.824 66.074ZM189.796 79.6878C189.037 75.4232 183.372 76.1834 180.572 73.4946C182.55 76.6654 186.096 77.3131 189.796 79.6878ZM117.689 33.9871L114.992 32.3892C115.123 33.1328 116.175 36.3601 117.689 33.9871ZM76.2143 8.6812C75.8936 10.1867 78.1698 10.1429 78.8827 10.9893C79.2034 9.48378 76.9272 9.52755 76.2143 8.6812ZM134.295 182.862C134.324 181.849 133.505 180.819 132.816 181.259C131.705 180.903 129.064 178.308 128.929 179.682C131.017 181.222 132.948 181.458 134.295 182.862ZM19.4734 96.9507C18.889 97.9971 20.8763 96.8738 21.271 98.016C20.4486 98.9214 20.1597 97.8418 19.9975 99.5018C15.8682 99.719 13.2265 97.3057 8.83453 96.58C7.64199 97.3266 11.0542 98.3193 11.7937 99.0604C7.72105 97.4945 2.034 95.8803 -0.156216 92.7051C-0.528411 93.5139 0.318363 93.5919 0.714634 93.9478C-2.56363 92.1867 -6.07967 90.224 -10.7097 89.4179C-5.24061 94.0518 1.04114 102.498 9.24543 102.697C9.53583 103.051 8.8988 103.945 8.58146 103.818C10.8218 108.355 16.9339 109.192 21.1939 109.778C22.0166 108.692 21.8323 108.219 22.2045 107.41L24.002 108.475C24.8247 107.389 24.1899 107.194 23.7672 106.822C36.1742 109.694 45.2088 118.016 56.3921 123.917C48.1117 122.098 44.8702 115.332 36.5586 115.856L35.6598 115.324C34.3645 114.556 35.0492 116.233 35.9491 116.222C37.5877 117.375 39.9947 118.074 40.7058 119.767C40.0421 120.767 39.5154 119.486 38.8789 120.138C41.4382 124.016 51.4896 126.885 52.8332 129.922C57.4347 131.74 63.3013 136.126 68.3224 139.828C66.469 140.183 64.6976 139.254 62.8738 138.113C62.7902 140.122 66.9411 142.279 69.4295 141.998C70.1995 140.819 68.5315 141.102 68.2679 140.583C75.942 141.195 82.1201 148.55 91.3235 152.006C87.5612 153.954 95.526 154.799 96.9805 155.358C101.503 157.07 105.146 161.772 108.377 160.599C115.803 166.029 125.798 170.681 133.174 174.568C131.964 170.762 125.27 169.944 120.644 167.142C119.217 166.296 117.684 164.903 116.178 163.768C118.804 160.783 121.313 163.602 123.454 165.113C122.103 165.524 120.835 164.53 119.512 164.291C123.104 167.752 129.215 169.254 134.447 173.142C134.408 179.598 142.725 176.413 146.77 178.205C147.484 178.507 146.53 179.455 146.714 179.686C151.045 184.372 162.796 184.795 165.191 191.362C171.904 195.946 182.003 201.205 188.949 208.409C189.139 206.281 187.39 207.485 186.917 205.691C189.142 204.83 189.426 208.207 191.702 208.527C191.522 205.756 193.772 205.757 195.203 204.667C196.427 201.457 198.42 197.612 198.901 195.716C197.449 193.887 192.712 193.442 194.837 189.615C196.537 186.565 200.77 187.378 201.214 190.427C204.103 188.263 205.394 191.45 208.629 188.1C209.771 186.354 208.634 185.983 209.06 184.661C211.339 183.226 214.254 181.623 215.689 178.901C216.171 176.159 215.482 176.175 217.766 172.683C217.052 172.26 217.451 171.225 216.287 171.08C217.298 168.47 218.169 169.834 219.097 169.052C220.716 166.439 219.475 165.219 221.755 163.179C221.572 161.981 219.985 161.646 220.359 160.111C221.633 158.444 222.849 158.922 224.123 157.134C225.668 152.66 225.834 149.004 225.788 145.465C228.358 144.082 226.34 147.367 226.922 147.651C228.217 148.297 227.187 147.323 227.586 146.53C229.788 143.839 229.75 149.629 231.874 146.105C232.187 148.53 229.668 150.671 227.595 154.711C230.722 153.052 232.851 147.229 232.857 144.447C232.037 144.203 231.242 144.64 230.45 143.747C232.836 141.951 235.623 137.669 237.798 135.446C238.012 134.482 237.325 134.075 236.955 133.432C239.631 131.991 240.65 125.873 243.35 125.354C242.723 121.53 243.708 118.723 242.789 115.393C243.744 114.021 244.614 115.808 245.569 114.8C247.138 111.369 246.692 109.168 247.439 106.219L245.06 104.809C244.741 105.468 245.35 105.587 245.64 105.88C241.906 107.058 238.85 100.1 234.423 103.713C236.408 103.739 237.725 106.458 239.207 106.549C229.809 107.64 220.032 100.029 211.255 95.1908C211.806 97.5762 209.878 95.7673 208.794 95.2459C211.34 92.6976 204.827 93.4403 203.428 92.0657C204.092 90.8243 204.644 92.4234 205.253 92.4209C204.888 89.7218 199.277 89.6061 196.872 88.1805C197.296 87.5844 197.693 88.0613 198.089 88.1753C198.78 86.9497 196.953 87.1993 196.61 86.5723C196.292 87.1101 196.741 87.1949 196.9 87.4704C196.342 88.23 195.895 87.117 195.337 88.0581C190.42 85.1442 194.383 88.7642 197.107 89.8335C191.702 92.6252 186.714 85.3097 181.478 83.5384C186.03 83.3299 188.404 87.2195 192.404 85.5329C184.896 81.5676 178.552 77.7472 173.291 74.9321C173.053 74.7911 171.305 75.3296 170.829 74.9872C169.667 73.9954 168.669 70.2551 166.418 70.8589C166.074 70.4738 167.295 69.1381 166.792 68.8404C162.953 69.5929 162.273 65.7381 158.439 63.8899C160.03 62.3502 161.426 65.8416 163.018 63.6366C159.418 64.0462 157.893 59.3273 154.234 62.1248C155.222 58.0474 150.906 59.1227 148.952 56.7538C147.817 55.4148 142.262 53.637 138.483 51.2758C126.112 43.5207 111.446 32.1043 95.5838 23.6119L93.7862 22.5466C94.0471 24.3967 96.9579 24.6684 98.2522 25.9199C99.096 27.4494 102.269 29.0269 104.806 30.5309C102.87 32.8951 101.183 29.4733 99.3284 30.2516C99.2433 33.0472 103.159 33.7932 105.855 35.5726C102.175 35.9352 100.304 32.2828 95.9932 30.4549C96.4968 30.0873 97.0265 29.9168 97.5559 29.8672C98.1685 27.9898 96.1805 29.476 95.7024 30.2826C77.8036 20.9468 65.1471 10.6606 46.9788 3.64776L44.5997 2.23781C44.1779 1.44283 42.3512 1.69244 43.673 2.41527C44.7559 3.54142 47.4816 3.70349 47.531 5.42829C48.3799 4.47806 49.1167 6.5497 49.966 5.41803C50.3312 7.99611 53.9599 6.63447 54.4319 8.79138C51.861 10.5377 51.2289 9.07308 48.9539 8.51204C49.3717 11.2424 52.4666 12.1077 54.2641 13.173C52.4641 13.3173 50.6643 13.3406 49.7143 11.9904C49.3393 14.1298 50.952 15.025 50.736 17.077C48.2454 18.3865 45.8951 15.8431 43.4604 15.7324C43.5406 15.356 44.3876 15.313 44.3871 15.5549C44.5841 9.8584 32.8812 12.0666 30.9304 8.30661C30.5582 9.11546 31.405 9.19341 31.8013 9.54937C30.2121 10.1214 30.2952 8.29351 28.4954 8.31687C28.2523 10.7161 32.302 10.5728 31.052 13.5258C33.6156 15.3478 34.9908 15.8601 37.925 17.599C39.0648 16.7606 35.5203 15.75 34.6486 14.9306C36.371 13.9531 38.034 16.0892 40.388 16.8182C39.7236 18.1805 39.2258 15.7055 38.5066 17.9437C44.4037 20.3485 46.9355 24.7556 52.1701 27.5551C48.2278 26.9748 44.3979 23.1911 40.511 21.3721C40.8256 22.8302 41.9617 23.8062 43.4423 24.5626C40.5008 26.3315 38.8166 21.6395 36.5133 21.9701C33.3132 20.8002 36.8556 22.839 38.5737 23.9178C40.5825 25.2294 43.2266 26.4936 43.6212 27.6358C44.1533 26.3161 40.6 29.5997 42.0305 28.9336C38.5336 30.555 36.5031 26.9295 32.4037 25.4689C32.713 29.5277 39.4558 32.5549 41.8333 34.7511C40.1909 35.4732 38.6607 33.113 37.0472 32.6413C36.2806 32.1869 36.438 32.8253 36.0924 33.5893L32.8145 31.6467C32.1282 30.7555 29.7202 30.5395 31.597 31.6518C33.2869 33.6222 36.4325 35.5469 39.7156 34.9493C40.4293 35.3723 40.0302 36.4074 41.1944 36.5524C37.5154 36.6126 31.7777 33.8783 28.2912 30.4193C27.8392 31.4231 27.4425 31.3091 27.0193 31.1794C25.3976 34.6993 28.3109 33.701 29.3145 34.7801C33.1173 38.8505 35.7809 43.5173 42.9486 45.8274C43.7173 45.2536 38.9329 42.297 43.0046 44.3467C44.2781 42.8609 42.928 42.9691 42.479 42.5214C45.3934 41.0392 47.1332 44.4319 49.4374 43.678C50.8968 41.8785 48.6993 42.2112 48.3038 41.4923C49.0461 40.9028 49.7333 41.3706 50.4761 40.5392C49.9223 39.5449 47.015 37.5797 44.8205 36.4609C57.6753 40.3853 65.0481 45.9657 75.9372 53.3878C73.3968 53.154 70.9392 51.3342 68.4002 50.435C68.8459 52.5158 70.117 52.1791 70.9862 54.2081C67.3088 53.482 65.1939 52.2892 62.0234 49.6231C63.2188 47.4854 64.2455 50.1528 65.3852 49.3749C62.1635 45.8306 55.5815 41.8088 50.4481 41.2493C53.3835 42.4439 55.3385 44.1475 58.8015 46.1998C56.102 46.1138 55.1257 44.6875 52.7713 44.1399C52.1366 43.8849 54.7485 47.9156 54.8317 46.0876C57.3667 48.9222 61.1412 53.8841 64.5814 54.1062C64.5286 54.0749 64.9281 52.8583 64.9546 52.8135C66.1434 53.8814 66.6412 56.3564 67.8299 57.4847C71.2641 60.6704 75.2026 63.1256 79.7504 65.2759C77.4948 68.1779 75.6292 61.5619 73.3736 64.4639C74.4856 64.2752 76.5984 66.4961 78.1303 68.0096C73.3676 67.367 71.8646 64.6596 67.2876 63.8243C67.2347 63.7929 67.3377 65.1862 67.8676 64.8947C64.1052 66.9038 60.2559 59.6571 55.2552 58.934C55.3845 60.4034 54.0865 60.9663 56.0701 61.6574C52.021 61.4983 52.2629 59.7039 47.9516 58.36C49.398 62.8504 54.6651 62.7625 56.7731 67.2818C56.9331 66.7105 57.0931 66.1392 56.8291 65.8011C60.266 67.6562 61.1329 70.8344 65.1545 71.4617C64.7298 72.0577 64.3602 71.5965 63.937 71.4668C64.5939 73.7938 69.0137 73.8699 68.9286 76.6655C66.2322 75.0675 62.5833 73.3895 60.286 70.8169C59.4633 71.9037 60.0981 72.0983 60.5208 72.4699C55.8931 70.5146 48.5682 67.3847 43.7862 63.279C44.3434 62.5798 44.7919 63.2695 45.2944 63.4462C42.7868 60.204 36.7825 58.4017 34.9087 55.7774C35.5737 54.1732 36.1542 55.0622 36.7902 54.6519C36.6078 53.2722 33.8015 53.6679 32.6135 52.1767C35.2098 50.9298 37.5819 55.7872 40.2638 51.5028C40.2088 52.4997 41.2404 52.8083 42.0334 53.2782C40.7605 54.5221 39.6543 51.8683 38.3529 54.0642C39.7274 54.9393 41.9227 55.6348 44.7858 53.3955C45.0443 56.3948 48.6178 56.1509 50.4707 56.0379C50.1859 52.9625 44.8353 55.0598 45.4777 51.565C46.6702 50.8185 47.0928 51.2506 47.5939 52.0925C46.0704 46.4664 35.8614 42.9595 31.2604 40.8989C29.326 42.0535 31.7072 42.4353 32.394 43.0845C30.4608 43.6344 31.8358 44.2676 32.9196 44.9099C27.4453 42.8161 23.9568 40.3248 17.3746 36.424C16.4235 35.5576 16.3673 37.1592 17.3466 37.1341L18.827 38.0114C19.726 38.4231 18.2931 40.2382 19.9606 40.197C20.7272 40.6514 20.5697 40.013 20.9153 39.249C21.5216 40.456 20.0654 40.6831 20.5127 41.9776C23.6052 43.9919 26.7276 44.3285 29.7927 46.7506C22.8631 44.4605 17.8932 41.6362 11.7847 39.0455C14.8759 41.6647 20.9522 47.0824 24.8388 49.0224C26.2422 48.7036 23.8356 47.7618 23.3599 47.4193C24.8451 45.9379 26.1909 47.886 27.619 48.4295C25.2311 51.3137 30.5271 50.0318 32.4037 51.2651C31.7395 52.5064 31.1869 50.9073 30.6046 50.9256C29.1748 51.2287 31.6078 52.1862 32.0835 52.5287C29.0645 53.4039 27.7465 50.8061 24.5465 49.5758C25.2852 50.7403 25.7302 53.1234 27.7126 54.4193C22.0508 53.3651 16.4025 45.7788 10.0792 44.6958C8.82809 48.1932 12.297 47.3423 13.5625 49.7273C10.3314 50.7796 7.42742 47.1814 5.70682 47.3122C9.95756 52.3747 17.4156 55.0991 23.5176 60.8348C21.212 62.3144 21.349 60.034 19.5479 60.7226C20.1062 59.4791 20.5817 59.9426 21.084 60.1797C21.5385 57.9663 18.7009 60.7052 17.7503 59.6573C17.6446 59.5947 17.9135 57.5135 17.8342 57.4665C16.5393 56.5175 10.4274 55.5598 13.8644 57.3544C10.4262 56.1646 9.05357 54.3822 5.77394 53.2864C5.19176 53.2441 5.45474 54.0661 4.79126 54.9445C3.89385 53.7466 1.24766 53.5105 1.27857 51.3489C-0.213077 55.9754 5.98405 54.077 5.6327 57.6231C4.2252 59.9378 3.01418 56.798 1.71739 56.7561C4.50198 54.0464 -1.14227 57.3624 -2.16999 55.1789C-1.9878 56.6797 0.338443 58.0583 1.68797 58.192C-1.46669 60.6823 -4.20408 53.3074 -7.38518 55.7821C-1.7036 60.0575 1.88728 64.2444 10.6885 70.187C9.30744 72.5174 7.93048 72.8519 6.6893 71.5108C7.45889 70.5135 8.11801 71.7519 8.88946 69.8475C7.82909 70.6724 6.85126 69.9718 5.81845 70.268C7.27235 71.1296 4.01505 72.0453 6.63332 72.9914C3.95896 73.5865 2.05952 70.5836 -0.558377 69.456C-0.140272 72.0654 2.47924 72.4068 2.98088 73.0068C3.27128 73.3606 2.55457 74.3892 2.3169 74.1272C3.61021 75.8625 3.40184 74.2252 6.81228 76.0647C7.31366 76.7857 5.93757 76.6968 6.12038 77.8951C9.16147 79.1524 9.87061 81.8132 12.6202 83.261C12.1955 83.8571 11.7995 83.3802 11.4027 83.2662C12.4325 84.4215 13.039 85.5075 14.9699 86.1068C13.881 87.9443 12.9594 85.642 11.8989 86.5274C14.5912 90.0607 19.0618 91.1963 22.9206 93.7859C23.5311 92.9366 23.1876 92.6725 23.6125 91.9554C26.7582 93.8197 26.1269 91.9317 23.3232 91.0573C25.9003 86.2869 28.8547 91.0656 30.3095 91.5039C28.8521 92.3357 27.5334 90.1008 26.1049 89.7387C25.363 90.1468 25.1759 91.0653 25.7862 90.2765C30.0146 93.3274 33.5294 95.8948 38.9242 98.0626C39.6113 98.5908 40.355 97.2755 41.0964 97.1094C43.1838 98.8309 43.3146 99.5745 45.5639 99.757C48.8981 100.037 44.2164 98.6556 44.4023 98.3419C45.1196 97.0109 48.236 100.251 49.4777 101.35C48.1798 101.852 48.1526 102.199 49.4217 102.83C48.3609 103.897 47.4121 101.942 46.4067 101.77C46.3722 105.686 43.5757 101.304 43.4196 100C41.8553 101.314 40.3761 99.8919 38.8403 100.253C34.609 98.5935 40.6364 102.044 42.6983 103.266C46.9278 105.773 51.0267 107.475 52.7667 110.747C53.9889 108.444 61.7287 115.756 60.0144 112.802L57.6353 111.392C56.5535 109.782 54.5972 108.683 53.2238 107.264C59.7903 105.948 63.77 114.119 68.713 117.17C65.5638 116.999 62.5543 113.278 59.377 113.877C59.1594 116.716 62.7344 115.746 63.1805 117.645C60.8516 117.537 58.5527 115.751 56.2781 115.008C56.109 119.994 60.7717 117.792 62.1684 120.739C57.1885 122.754 52.4396 115.398 48.337 115.51C48.0183 116.047 48.4681 116.132 48.6263 116.408C47.777 117.539 47.0132 115.754 46.2193 115.708C46.6713 114.704 47.068 114.818 47.4647 114.993C46.2245 113.168 43.3392 113.335 42.3892 111.985C42.0703 112.643 42.6788 112.762 42.9693 113.055C37.8073 113.508 33.3764 105.977 27.079 105.152C27.6374 103.908 28.1128 104.372 28.6417 104.564C28.2745 102.954 27.5609 102.47 26.5813 102.616C29.5757 100.879 32.5539 106.943 36.3199 103.18C29.282 102.098 26.9137 95.4257 19.7922 96.3524L19.4734 96.9507ZM242.941 118.632C242.516 119.288 242.091 119.884 241.669 119.392C231.701 114.272 220.417 106.131 210.635 101C211.354 98.7614 211.825 101.281 212.516 99.874C210.641 97.8545 210.135 99.5528 208.546 99.7619C205.959 96.7751 199 95.6185 195.145 91.0934C196.175 92.2487 197.843 92.0866 197.318 90.1403C200.012 92.8269 206.045 93.3142 206.197 96.9161C211.306 96.1898 214.474 100.368 217.593 102.156C217.912 101.497 217.808 100.588 218.576 100.498C223.532 110.217 239.577 107.131 242.914 118.616L242.941 118.632ZM90.1117 149.229C91.1939 150.657 93.9494 149.202 93.9976 151.532C92.9655 151.465 89.1303 150.282 90.1117 149.229ZM129.611 169.671C125.01 167.67 131.177 167.329 132.018 170.37C131.702 169.578 130.431 170.035 129.611 169.671ZM54.571 121.445C57.2149 122.769 59.0171 121.597 60.2544 124.813C59.1708 124.05 54.7523 123.369 54.571 121.445ZM65.0406 126.923C67.6844 128.308 68.6875 129.568 71.0148 130.463C68.7881 132.171 65.381 128.699 65.0406 126.923ZM75.4543 133.821C78.2555 135.905 80.5342 134.651 81.4006 138.071C79.7625 136.677 75.0809 135.234 75.4543 133.821ZM83.3673 134.09C83.8428 134.553 82.6775 134.892 82.9941 135.383C83.6814 135.79 87.092 137.569 85.0545 137.33C83.0206 135.398 79.8707 135.53 78.7895 133.617C77.3843 134.843 74.768 132.93 75.1929 132.213C77.9178 132.798 80.6431 133.202 83.3673 134.09ZM113.005 149.414C112.474 150.31 113.639 150.213 113.24 151.067C112.552 151.022 113.027 151.728 112.867 152.36C110.197 150.475 105.829 150.914 104.14 148.702C104.932 149.777 106.311 148.414 106.34 147.038C108.589 147.342 107.261 149.825 109.245 150.274C109.829 149.53 110.173 149.552 110.228 148.616C112.557 148.482 111.837 151.204 112.926 149.488L113.005 149.414ZM71.335 129.2C69.6442 127.713 66.3368 127.206 65.6795 125.121C67.3703 126.608 70.6776 127.114 71.335 129.2ZM123.944 158.137C122.967 157.074 121.934 157.673 120.929 157.077C121.169 156.311 121.356 155.634 121.304 155.059C120.426 157.142 119.768 155.42 119.796 154.892C119.183 156.829 117.091 157.527 117.624 155.845C118.259 155.918 117.996 155.096 118.606 154.187C119.398 155.14 119.746 153.348 119.88 152.701C123.007 150.558 126.537 158.644 127.418 154.928C128.052 155.606 131.149 155.201 129.797 156.338C129.295 156.161 128.793 155.501 128.289 156.171C131.407 158.443 134.846 159.33 134.386 164.265L132.589 163.2C134.527 159.928 131.193 159.89 130.584 159.771C130.159 160.488 130.821 160.578 130.528 161.252C128.41 161.632 127.052 153.015 124.843 158.61C123.599 158.72 125.3 155.307 124 156.657C124.264 156.995 124.104 157.566 123.971 158.093L123.944 158.137ZM134.552 160.67L135.16 161.03C136.248 159.676 133.52 160.603 134.635 159.205C137.862 160.148 141.005 163.041 144.317 161.249C144.341 162.595 143.573 163.109 143.624 163.805C147.75 165.403 151.735 170.611 156.443 172.129C158.163 172.664 160.071 171.191 161.921 172.409C163.613 173.532 163.766 176.348 166.333 176.537C165.88 177.782 166.431 180.228 168.048 179.067C167.652 178.711 166.831 178.588 167.177 177.824C167.599 178.498 169.532 178.311 168.947 179.6C167.651 178.953 168.681 179.927 168.283 180.72C163.468 179.562 162.66 173.754 155.753 173.294C158.422 174.998 153.952 173.62 152.973 173.887C152.949 172.601 153.481 170.979 152.795 170.088C148.88 169.161 146.152 170.148 142.738 170.062C142.529 168.788 141.39 169.021 143.14 167.334C142.399 167.681 141.711 167.213 140.996 167.577C143.198 165.188 140.739 163.731 139.6 164.509C139.227 165.438 140.259 165.566 138.906 167.065C138.804 165.551 137.186 167.196 137.427 165.462C137.93 165.457 138.46 165.105 139.018 164.164C138.652 162.191 134.812 163.367 134.552 160.791L134.552 160.67ZM126.848 162.098C125.553 160.847 122.643 160.575 122.382 158.725C123.676 159.977 126.587 160.248 126.848 162.098ZM102.246 143.038C102.906 143.732 103.726 144.278 103.671 145.396C103.01 144.702 99.674 145.449 100.973 144.524C101.37 144.638 101.795 143.86 102.246 143.038ZM154.979 176.529C152.891 174.808 149.187 174.066 148.134 171.746C150.221 173.468 153.925 174.209 154.979 176.529ZM165.129 182.545C163.835 181.294 160.924 181.022 160.664 179.172C161.958 180.423 164.869 180.695 165.129 182.545ZM169.361 184.266C168.832 183.952 167.031 184.399 166.982 182.856C167.88 183.449 169.153 182.507 169.361 184.266ZM171.59 181.166C172.937 182.691 176.742 185.491 179.334 186.482C177.425 187.955 169.731 184.243 171.59 181.166ZM70.6864 122.82C74.8628 125.417 78.2777 125.079 81.4189 129.181C77.1345 127.611 73.1163 125.29 70.6864 122.82ZM182.931 187.887C181.975 189.259 184.888 188.381 183.138 190.25C181.946 190.332 181.58 188.177 182.931 187.887ZM144.638 159.986C145.325 160.514 146.039 160.453 146.782 159.743C143.662 158.015 141.922 154.864 137.821 154.432C139.746 157.511 142.607 156.36 144.32 159.798C142.226 161.463 138.736 159.577 135.855 157.748C137.078 155.021 138.049 159.169 139.217 157.5C136.602 154.86 132.977 154.528 130.864 152.549C132.266 152.896 133.722 152.608 135.096 153.544C135.548 152.782 135.681 152.256 135.788 151.713L144.432 156.836C145.79 153.22 146.839 157.657 148.113 156.05C147.585 155.314 145.547 155.438 146.052 154.103C147.086 153.564 148.119 153.268 149.151 152.972C148.493 151.371 147.703 149.57 145.668 147.94C145.192 147.598 142.786 146.656 144.189 146.337C148.048 149.108 150.532 150.883 154.92 153.424C153.06 156.863 151.48 153.141 149.731 154.042C152.479 156.397 155.523 156.445 156.203 160.118C155.754 160.033 155.646 160.636 155.539 161.239C153.027 160.476 152.316 158.723 150.145 158.769C162.065 166.862 179.524 171.214 187.154 180.701C186.255 180.168 185.383 179.228 184.373 181.294C186.647 182.399 188.155 182.627 189.712 185.184C186.171 182.48 183.364 183.057 180.432 180.411C180.06 181.16 180.244 181.814 179.477 181.359C170.067 175.177 160.601 171.141 152.039 164.372C152.939 164.602 153.865 164.425 154.82 163.779C151.564 163.969 146.695 163.385 144.585 159.954L144.638 159.986ZM112.414 140.889C112.811 141.003 113.207 141.48 113.631 140.883C116.222 142.419 117.834 143.677 115.11 142.487C114.661 142.281 114.081 141.21 113.311 142.147C114.078 142.42 114.342 142.939 113.837 143.972C112.435 143.505 112.809 141.97 112.44 140.904L112.414 140.889ZM125.636 146.484C127.114 148.571 132.75 149.005 133.089 151.627C131.872 151.391 130.738 149.265 129.492 150.223C134.305 152.227 121.312 151.067 125.689 146.455L125.636 146.484ZM30.0997 90.5923C28.8593 88.8278 25.8391 90.3078 25.6322 87.9447C26.8506 87.5162 31.8731 90.4928 30.0997 90.5923ZM50.832 99.1852C51.2816 99.3305 53.0527 100.38 51.7028 100.428L45.147 96.5427C44.616 97.3786 44.0579 98.5011 43.5564 97.8406C42.7641 97.0077 41.5487 95.9846 39.9892 94.9999C39.0111 94.4202 33.3529 91.6725 36.1312 91.9868C37.6937 91.5201 39.0903 94.5277 40.7105 91.7335C39.9707 91.1134 35.6327 89.8748 36.0082 87.4329C36.5637 87.5805 36.9368 86.3483 36.9909 85.7748C47.5453 88.6386 51.8745 94.1714 59.6718 99.2163C59.0073 100.579 60.9133 100.376 59.56 102.117C58.2363 102.302 56.9693 100.642 55.6181 101.295C55.1917 102.738 57.9187 102.295 57.3598 103.78C55.4283 103.484 51.9645 101.855 55.3554 100.352C52.7387 98.6197 50.6014 95.4758 47.8729 96.6443C49.1154 97.3201 50.3844 98.0116 50.8321 99.1247L50.832 99.1852ZM16.6892 73.7432C17.0575 74.8093 18.5653 75.2184 17.4761 77.1768C16.4993 75.9923 15.4377 77.422 14.433 76.8872C15.8413 74.2096 16.7099 76.541 16.6892 73.7432ZM167.917 165.607C169.58 167.622 173.055 163.626 173.686 166.058C172.043 166.781 167.409 167.91 167.917 165.607ZM26.5213 80.2968C28.2151 80.3317 30.9122 81.5668 30.4072 82.5997C29.3487 82.5174 25.457 83.0571 26.5213 80.2968ZM166.437 164.73C165.934 164.432 165.935 163.827 166.202 163.077C170.564 165.299 169.557 165.792 166.437 164.73ZM160.602 157.518C162.483 156.936 164.943 157.244 165.152 158.7C162.873 160.316 162.667 157.167 160.602 157.518ZM177.449 163.807C177.634 163.917 177.739 164.101 177.421 164.518C176.971 164.433 176.864 165.035 176.757 165.638C173.292 164.432 170.938 163.582 167.186 160.693C170.42 158.189 175.622 164.178 176.813 164.157C176.495 163.969 177 163.299 177.422 163.792L177.449 163.807ZM48.2266 79.051C46.959 77.6942 45.6075 78.5282 44.3393 77.4738C45.7169 76.8369 49.7146 76.2389 48.2266 79.051ZM43.6362 71.8495C50.3023 73.5595 58.7572 80.629 64.2288 84.0534C57.4045 82.0074 51.3818 76.3187 45.9594 74.7401C45.4282 75.6364 46.5929 75.5395 46.1942 76.3931C45.7721 75.7191 43.8396 75.9061 44.4245 74.6177C47.31 74.3295 43.131 73.0034 43.6097 71.8943L43.6362 71.8495ZM55.7819 73.1131C52.6878 71.885 45.3323 70.7957 44.4414 66.3923C48.9631 68.4059 52.956 70.1667 55.7819 73.1131ZM39.1591 61.0213C37.226 61.5107 36.1978 59.5691 34.9001 60.0111C36.9425 57.8305 37.9438 59.9983 39.1591 61.0213ZM31.0868 48.1231C31.9575 49.4263 34.74 47.7448 33.7552 50.4311C32.8551 50.5637 30.6606 49.4449 31.0868 48.1231ZM55.5373 63.34C56.4139 61.8006 56.7035 62.5173 56.8387 61.144C58.3426 63.4281 58.9269 62.4422 59.7434 64.3793C62.0783 61.5243 64.0789 66.8276 66.9631 67.1442C63.9929 70.0466 64.0289 65.4052 62.1225 65.7893C62.2807 66.0647 62.7041 66.134 62.4118 66.6874C59.4224 66.0058 57.2279 64.9474 55.5373 63.34ZM165.503 116.581C160.983 113.962 162.966 114.774 165.559 115.1C163.528 111.777 157.886 114.125 157.178 110.86C158.711 111.829 158.342 111.186 158.133 109.911C161.384 112.02 167.919 112.986 169.762 117.53C168.467 116.944 165.82 116.829 168.574 116.1C167.57 115.504 166.537 115.921 165.503 116.52L165.503 116.581ZM148.908 103.779C151.919 106.835 151.285 106.398 147.926 105.437C147.423 105.139 147.398 104.579 147.691 103.784C148.088 103.898 148.484 104.375 148.908 103.779ZM149.05 99.442C149.389 101.702 152.14 102.605 155.024 102.982L154.041 104.641C152.216 104.225 148.035 103.746 149.05 99.442ZM164.827 110.972C163.475 111.866 162.236 109.679 160.939 109.395C160.728 109.39 157.66 108.057 157.663 106.726C160.652 107.348 162.874 108.18 165.201 108.953C163.687 111.689 162.426 107.067 160.941 108.669L164.827 110.972ZM194.203 124.688C194.26 122.905 187.64 124.25 188.518 122.045C188.332 122.359 188.093 122.641 187.909 122.411C189.657 121.872 194.313 122.936 194.23 124.643L194.203 124.688ZM202.877 128.375C203.326 128.641 205.441 129.592 204.038 129.79L201.342 128.192C200.202 128.849 199.12 127.42 198.036 126.959C197.641 125.878 197.195 124.039 195.657 125.549C195.947 125.843 196.556 125.961 196.237 126.62C194.309 124.811 192.566 122.87 191.273 120.711C196.217 123.338 197.853 125.761 202.903 128.33L202.877 128.375ZM73.1947 48.4926C72.8211 49.9668 70.0228 46.4917 68.6448 47.3101C69.176 46.4138 68.0113 46.5107 68.41 45.657L73.1947 48.4926ZM52.6301 35.5786C51.8404 33.4756 49.6909 36.2589 49.3522 33.636C51.7382 31.659 54.2989 34.8721 55.3279 36.4508C54.4589 34.3008 49.8202 37.7283 52.6301 35.5786ZM57.7894 36.3957C56.7532 38.3249 59.5595 37.9292 59.1858 39.4638C57.7563 39.646 54.7395 39.4326 54.3997 37.354C55.9334 38.0207 56.0458 34.8174 57.7894 36.3957ZM68.5498 42.046C66.7804 40.1497 63.3393 40.3509 62.5756 38.5055C62.9723 38.6195 63.3683 39.0964 63.793 38.5004C62.1005 37.8606 62.5013 35.9788 62.1073 34.5342C63.5092 34.9411 64.9101 35.8319 66.3679 34.8186C63.7763 33.7672 61.2151 30.796 58.5946 30.9386C59.8899 31.7062 62.7713 33.4138 61.1806 34.7116C59.808 32.9293 57.5874 31.6738 57.7253 28.97C71.4202 36.1779 79.5595 42.2731 91.6348 52.0332C86.7393 51.6147 83.0456 45.9136 78.7861 45.1453C80.0286 45.8211 81.2712 46.4969 81.1092 48.0359C78.5176 46.9845 75.9564 44.0133 73.3359 44.1558C75.6897 45.0058 76.1621 46.9812 78.3834 47.8738C75.7605 49.226 75.5001 47.1339 73.7218 49.5922C72.3559 44.5439 65.208 45.4549 63.3095 41.9682C63.7062 42.1427 64.1295 42.2119 64.5815 41.2081C63.3367 41.621 60.5051 41.4567 60.3769 39.443C62.6521 39.8831 65.4808 41.4989 68.5233 42.0304L68.5498 42.046ZM145.03 85.1303C141.403 85.3428 141.755 81.7967 138.737 82.1276C142.022 80.4413 144.633 85.1372 145.03 85.1303ZM161.446 94.859C159.78 93.872 158.887 90.7387 157.008 90.7755C158.913 90.7544 162.005 93.1921 163.882 94.1229C173.559 98.8286 185.451 107.451 193.436 111.638C183.437 108.921 170.354 100.017 161.419 94.9038L161.446 94.859ZM194.07 111.953C195.946 113.67 198.277 112.569 199.437 115.133C197.767 116.445 193.616 114.167 194.07 111.953ZM97.3895 46.4816C96.7251 47.7834 96.1453 46.592 95.508 47.6071C86.0223 39.8661 70.1782 35.2601 62.3869 27.2517C64.7158 27.3602 66.9595 30.2643 69.3733 27.6982C64.4311 24.2243 59.1624 25.0985 54.9339 22.1081C55.4364 22.2848 55.9379 22.9453 56.4421 22.2753C57.5313 20.3169 55.0165 20.5221 56.2647 18.4763C57.2704 18.4668 58.1914 21.0715 59.3078 18.7659C59.2584 17.0411 56.5326 16.879 55.4498 15.7528C67.8556 19.2295 79.111 28.6854 89.583 33.0142C90.4742 37.2362 100.211 38.8886 101.42 42.9962C98.5105 41.8777 95.7127 38.1608 92.693 39.3384C95.2762 44.5025 100.229 42.6541 101.543 47.5501C100.168 46.7355 98.7397 46.2524 97.3099 46.5556L97.3895 46.4816ZM163.662 85.0308C165.701 84.967 168.293 85.4741 169.665 87.8612C168.502 86.9905 168.077 87.8889 167.576 86.6236C167.151 87.3406 167.495 87.6048 166.884 88.4541C165.458 87.1847 163.657 87.6315 163.662 85.0308ZM169.609 89.2814C171.54 89.7598 176.596 89.3651 174.076 91.929C176.11 93.9215 179.473 92.9476 179.732 96.0073C175.473 95.0576 171.853 91.8831 169.609 89.2814ZM194.435 101.815C191.149 103.743 184.833 99.1518 181.793 97.2897C187.509 97.7706 189.383 100.334 194.435 101.815ZM163.082 83.9604C162.312 85.4414 161.597 85.5023 160.91 84.9135C161.681 83.4324 162.395 83.3716 163.082 83.9604ZM209.343 111.376C212.911 113.672 218.098 114.082 220.393 117.924C214.205 114.984 207.936 113.388 201.804 109.149C206.126 105.594 207.175 110.031 209.343 111.376ZM120.391 58.6596C121.104 59.3245 124.516 60.1963 122.423 61.3779C122.955 59.9978 119.009 61.3528 120.391 58.6596ZM82.7909 28.2018C84.0318 29.6639 84.7266 26.4423 84.7018 25.6404C87.1053 28.0337 89.4604 28.2789 91.2281 30.9615C89.2434 30.8147 87.5563 27.5138 84.9352 27.9587C84.509 29.2806 86.2028 29.3155 85.7501 30.6822C84.9841 29.9254 81.5719 28.9327 82.7909 28.2018ZM70.662 18.7732C72.2531 17.294 75.2919 19.6399 75.7654 21.071C73.6509 19.6968 70.9488 20.881 70.662 18.7732ZM64.6878 15.2327C63.8404 15.4572 59.6614 14.1311 61.7286 12.7523C61.728 13.0547 69.0517 16.729 64.6878 15.2327ZM96.5928 34.8675C96.1708 34.1935 94.2383 34.3804 94.8232 33.0921C95.8832 32.4486 97.0455 33.5613 96.5928 34.8675ZM82.2932 25.6663C82.8522 24.1204 77.2702 22.9317 79.6527 22.6482C80.9471 23.8997 83.8578 24.1714 84.1187 26.0215C83.5378 25.3745 82.8735 26.6158 82.3197 25.682L82.2932 25.6663ZM174.814 80.4977C174.128 79.6066 171.825 79.6952 172.146 78.1897C172.832 79.0809 175.135 78.9923 174.814 80.4977ZM169.243 74.2286C168.556 73.3375 166.254 73.426 166.574 71.9206C167.261 72.8117 169.563 72.7232 169.243 74.2286ZM127.241 47.8231L128.224 46.165C129.146 47.9834 132.295 48.4566 132.926 50.4656C130.572 49.9785 128.032 49.2608 127.241 47.8231ZM145.4 59.372C143.763 57.554 141.672 57.405 140.643 55.8263C142.658 54.5373 145.616 57.1386 145.4 59.372ZM240.233 109.579C242.11 110.691 244.252 111.658 245.281 113.297C242.337 116.336 240.574 111.415 240.233 109.579ZM182.339 179.362C182.391 180.059 181.251 180.776 182.865 181.187C183.025 180.616 183.185 180.045 182.921 179.707C183.346 179.11 183.742 179.587 184.138 179.701C184.565 178.259 182.394 178.365 181.761 177.566C183.342 180.743 175.912 177.248 180.778 179.224C180.857 179.271 181.119 180.819 182.286 179.391L182.339 179.362ZM3.51908 42.9274C2.61944 42.8181 1.37714 42.0214 1.13997 41.5175C-0.184741 42.1857 2.48329 44.6752 3.51908 42.9274ZM56.5103 53.5012C56.5103 53.5012 57.225 53.4404 56.829 52.9635C54.9544 50.7625 50.6947 50.0547 54.422 52.2636C54.9507 52.5769 55.5316 53.224 56.5103 53.5012ZM11.2284 0.627097C11.0418 1.30368 13.4236 1.38306 14.2155 2.39737C15.1727 0.30019 12.2073 0.843858 11.2284 0.627097ZM25.2413 33.4562C27.0157 32.9333 25.1126 31.6844 24.4249 31.4585C25.0892 30.2172 25.6417 31.8163 26.224 31.7981C26.3311 31.1954 26.4382 30.5928 26.888 30.6777C26.0146 30.6446 23.2416 27.7295 21.99 31.4688C21.6725 31.4018 21.832 31.0724 22.0179 30.7587C20.7952 33.304 24.4267 30.6118 25.2943 33.4271L25.2413 33.4562Z" fill="url(#paint0_linear_147_1077)"/>
<defs>
<linearGradient id="paint0_linear_147_1077" x1="-6.53808" y1="29.9429" x2="223.258" y2="166.128" gradientUnits="userSpaceOnUse">
<stop stop-color="#34873C"/>
<stop offset="1" stop-color="#B3CD36"/>
</linearGradient>
</defs>
</svg>
