<svg width="247" height="210" viewBox="0 0 247 210" fill="none" xmlns="http://www.w3.org/2000/svg">
<path d="M261.215 96.5061C263.098 96.8947 257.397 98.9211 260.095 98.6983L263.361 96.7365C263.081 98.1201 264.908 98.2986 264.289 96.9085C262.379 96.4147 267.319 95.2101 265.409 94.7163C264.231 96.3354 261.396 95.9115 261.215 96.5061ZM160.34 155.633C160.487 157.55 157.934 156.045 157.073 157.595C156.818 155.439 158.913 156.004 160.34 155.633ZM105.633 189.219C104.553 186.586 108.446 186.861 109.441 185.474C109.54 188.027 106.728 187.164 105.633 189.219ZM243.259 105.042C243.695 106.725 241.521 106.268 240.888 106.466C240.449 104.542 242.656 105.83 243.259 105.042ZM186.143 138.617C189.397 135.082 193.665 132.58 198.05 131.466C195.297 134.76 189.967 136.927 186.143 138.617ZM145.359 162.382C149.731 162.977 138.082 165.902 145.359 162.382V162.382ZM216.972 117.853C216.401 116.008 218.437 115.636 219.568 114.774C219.812 115.539 218.559 117.75 216.972 117.853ZM214.118 115.13C213.578 113.753 215.644 113.91 216.167 113.171C216.285 114.68 215.337 115.31 214.118 115.13ZM99.2602 183.324C98.6825 180.572 101.526 182.024 102.811 180.462C103.481 181.579 100.874 183.205 99.2602 183.324ZM86.4842 190.997C90.8115 189.309 88.8109 187.351 86.4842 190.997V190.997ZM240.726 96.1114C238.095 94.7747 238.866 91.7599 236.301 92.085C236.049 90.3525 238.494 91.679 239.342 91.7775C241.118 85.4847 247.754 87.8797 251.796 83.5685C249.787 87.2058 245.077 90.6426 240.817 90.8916C243.281 91.2346 241.167 91.5931 240.914 93.0818C243.566 93.7374 245.264 90.8947 247.248 90.7968C246.262 93.2728 243.308 94.6214 240.78 96.2007L240.726 96.1114ZM251.383 88.2524C251.423 89.93 248.83 90.0289 247.833 91.114C247.793 89.4364 250.386 89.3374 251.383 88.2524ZM265.816 75.8774C265.208 75.9389 264.507 74.294 263.96 75.4729C263.631 73.9694 265.907 73.9998 266.615 73.1492C268.022 73.6413 264.772 74.3777 265.816 75.8774ZM210.052 106.331C209.752 105.235 210.25 104.571 211.173 104.138C212.643 105.929 210.47 105.594 210.052 106.331ZM214.053 100.221C214.359 98.761 215.489 97.7783 216.939 96.9686C217.804 99.2444 214.606 99.8282 214.053 100.221ZM76.5172 172.373C81.5749 169.335 87.1144 166.98 92.6505 164.202C94.0764 167.113 91.6831 165.695 90.6342 166.932C92.6693 169.903 88.0536 168.604 84.9649 169.608C81.4532 170.684 80.5107 175.322 76.544 172.417L76.5172 172.373ZM94.4476 163.852C94.7484 161.727 102.213 161.862 97.1991 163.719C96.0645 164.157 94.9208 163.446 94.4476 163.852ZM98.191 158.626C100.297 160.582 100.854 157.391 102.385 156.836C102.373 158.666 100.203 162.036 98.191 158.626ZM258.258 64.0096C258.005 65.4983 253.551 67.9302 253.2 67.0472C255.913 65.2967 255.514 65.1107 258.258 64.0096ZM263.986 55.3436C264.184 53.5841 265.471 52.446 266.866 51.3656C266.349 52.952 265.539 54.3497 263.986 55.3436ZM243.968 44.2143C240.49 42.9605 240.21 47.6863 243.968 44.2143V44.2143ZM238.368 42.3513C240.487 39.2554 243.767 38.9871 245.797 37.8898C244.416 40.6636 240.428 41.7221 238.368 42.3513ZM234.2 44.1253C234.108 42.5398 235.189 41.9516 236.565 41.9757C237.59 44.3379 235.096 43.5874 234.2 44.1253ZM231.449 44.2587C231.037 45.7819 229.662 45.9393 228.472 46.0465C228.25 44.7215 230.599 43.8578 231.449 44.2587ZM203.151 60.5247C202.423 62.1168 199.921 63.6803 198.705 63.9242C198.95 61.3468 201.187 59.7601 203.151 60.5247ZM200.362 59.2224C200.723 57.9728 201.95 55.8987 203.596 56.5507C202.711 58.4192 201.684 59.0967 200.362 59.2224ZM197.289 58.82L195.813 59.7059C195.492 59.17 195.914 59.0379 196.097 58.8062C194.847 58.0378 195.223 58.663 195.105 57.1538C195.852 57.8599 196.536 57.3881 197.315 58.8041L197.289 58.82ZM225.071 37.698C226.341 37.6039 227.156 36.9925 228.975 36.0822C229.929 36.2384 226.227 39.9207 225.071 37.698ZM222.706 39.8476C226.392 40.733 223.552 36.4226 222.706 39.8476V39.8476ZM174.906 63.3299C178.685 59.1769 183.966 57.6456 189.152 54.045C185.611 58.1767 178.919 61.9533 174.906 63.3299ZM237.042 25.2824C235.453 25.1431 235.574 27.1361 233.743 26.5343C233.994 24.7432 235.278 23.1212 237.042 25.2824ZM231.635 27.7395C230.94 30.1625 227.543 29.0427 226.61 31.4871C226.57 29.749 225.545 30.7289 224.684 28.9369C228.362 28.8546 228.478 26.7797 231.635 27.7395ZM187.006 53.8145C186.861 52.2002 189.375 52.1487 190.24 51.1428C190.938 52.3039 187.825 53.566 187.006 53.8145ZM228.492 18.4466L227.016 19.3326C225.601 17.6914 227.429 17.9303 227.821 17.3301L228.492 18.4466ZM175.988 39.528C176.959 41.7405 174.02 41.6822 173.103 42.7803C170.983 42.534 176.158 40.945 175.988 39.528ZM218.467 12.5572C219.211 9.61876 222.602 10.0733 225.573 7.55979C225.356 10.2423 221.12 10.0521 218.467 12.5572ZM175.055 38.6302C175.2 40.2445 172.686 40.296 171.794 41.3178C171.649 39.7035 174.163 39.652 175.055 38.6302ZM153.928 44.5739C153.86 42.7307 156.517 44.0515 157.51 42.4222C158.547 42.9543 154.912 45.1376 153.928 44.5739ZM150.72 47.2902C149.614 44.673 153.112 45.1853 153.375 44.9666C153.705 46.4701 151.428 46.4397 150.72 47.2902ZM174.126 31.7134C174.272 33.3277 171.758 33.3792 170.866 34.401C170.136 32.4694 173.682 32.4057 174.126 31.7134ZM199.989 15.4514C198.824 15.4823 198.772 15.5139 198.197 16.5272C196.757 15.0834 199.391 13.5013 199.989 15.4514ZM185.073 23.6804C183.137 23.1419 181.309 26.2452 179.345 25.6015C177.936 21.4649 182.462 21.4206 184.596 20.1996C185.131 20.9113 183.23 21.5666 185.046 23.6357L185.073 23.6804ZM169.836 31.3129C169.796 33.038 167.072 33.216 165.995 34.3485C165.184 32.2226 168.617 31.1335 169.836 31.3129ZM203.963 9.29692C203.818 7.68261 206.332 7.63112 207.224 6.60937C208.139 8.61158 205.077 9.6001 203.963 9.29692ZM199.731 9.65104C198.086 5.83827 203.175 6.73178 205.593 4.61098C204.826 7.9886 200.505 7.1806 199.731 9.65104ZM161.247 23.0414C160.602 25.1304 157.298 25.6565 155.616 27.1529C156.234 25.0193 159.565 24.5378 161.247 23.0414ZM194.828 2.14387C194.18 3.93042 190.912 5.65032 189.127 4.10972C190.812 3.09718 192.213 2.80297 194.828 2.14387ZM190.543 2.46916C188.931 2.82945 187.642 3.84659 185.453 4.79686C185.679 3.20298 188.787 1.39658 190.543 2.46916ZM170.596 13.7199C174.09 10.4666 181.544 5.80783 185.163 4.9709C180.394 7.71354 174.417 11.6073 170.596 13.7199ZM84.6736 66.0538C83.8086 67.1202 82.8459 65.8754 81.9809 66.9418C81.6567 66.1035 83.8632 63.9883 84.6736 66.0538ZM80.7366 66.8992C80.9871 68.4502 78.6053 68.483 77.792 69.3968C77.5415 67.8458 79.9234 67.813 80.7366 66.8992ZM57.8453 80.6476C58.579 76.3786 64.2488 77.1055 67.0329 74.4003C65.0731 77.5827 61.5317 78.2512 57.8453 80.6476ZM129.683 34.5244L132.37 32.9107C132.244 33.6551 131.211 36.8885 129.683 34.5244ZM171.008 8.9755C171.338 10.4791 169.061 10.4487 168.354 11.2992C168.024 9.79562 170.3 9.82602 171.008 8.9755ZM113.951 183.494C113.917 182.482 114.729 181.447 115.42 181.882C116.529 181.52 119.155 178.91 119.298 180.282C117.22 181.835 115.29 182.082 113.951 183.494ZM228.266 96.9104C228.857 97.9533 226.863 96.8417 226.475 97.9862C227.303 98.8868 227.585 97.8056 227.757 99.4645C231.888 99.6575 234.515 97.2287 238.903 96.4773C240.1 97.2168 236.694 98.2296 235.958 98.975C240.022 97.3853 245.699 95.7376 247.871 92.5496C248.248 93.3563 247.401 93.4392 247.007 93.7975C250.275 92.0171 253.78 90.0339 258.405 89.2005C252.963 93.8665 246.731 102.349 238.528 102.597C238.24 102.952 238.882 103.843 239.198 103.713C236.985 108.264 230.878 109.136 226.621 109.748C225.792 108.666 225.974 108.192 225.597 107.386L223.806 108.462C222.976 107.38 223.61 107.181 224.031 106.807C211.641 109.752 202.655 118.126 191.507 124.093C199.776 122.225 202.978 115.441 211.292 115.916L212.188 115.378C213.479 114.603 212.804 116.284 211.904 116.278C210.272 117.44 207.869 118.154 207.168 119.851C207.838 120.847 208.357 119.563 208.997 120.211C206.461 124.105 196.426 127.032 195.101 130.077C190.51 131.922 184.669 136.342 179.67 140.074C181.525 140.418 183.291 139.479 185.108 138.326C185.204 140.335 181.066 142.517 178.576 142.25C177.799 141.076 179.468 141.349 179.729 140.828C172.058 141.485 165.924 148.877 156.741 152.386C160.514 154.313 152.555 155.204 151.104 155.772C146.591 157.51 142.976 162.233 139.738 161.079C132.344 166.553 122.377 171.263 115.023 175.193C116.211 171.381 122.9 170.523 127.51 167.694C128.932 166.84 130.456 165.438 131.956 164.295C129.312 161.325 126.82 164.159 124.688 165.682C126.041 166.085 127.304 165.083 128.625 164.837C125.053 168.319 118.951 169.857 113.742 173.775C113.819 180.231 105.484 177.095 101.448 178.91C100.736 179.217 101.697 180.159 101.513 180.391C97.2098 185.102 85.4621 185.595 83.1057 192.175C76.4196 196.799 66.3511 202.117 59.4476 209.362C59.2455 207.235 61.0018 208.428 61.4639 206.632C59.2339 205.783 58.9696 209.163 56.696 209.495C56.8593 206.723 54.6097 206.738 53.1719 205.657C51.929 202.453 49.9135 198.62 49.4221 196.728C50.8633 194.89 55.5972 194.417 53.4496 190.602C51.7316 187.562 47.5034 188.4 47.0776 191.451C44.1757 189.305 42.9041 192.5 39.6486 189.168C38.4967 187.429 39.6318 187.051 39.1979 185.732C36.9104 184.311 33.9864 182.725 32.5357 180.011C32.0376 177.271 32.7258 177.283 30.422 173.806C31.1333 173.379 30.7281 172.346 31.8914 172.194C30.865 169.59 30.0025 170.959 29.0699 170.182C27.4348 167.579 28.669 166.351 26.3768 164.325C26.5526 163.126 28.1379 162.781 27.7552 161.249C26.4716 159.589 25.2579 160.075 23.9734 158.294C22.4029 153.829 22.2151 150.174 22.24 146.635C19.6618 145.267 21.6993 148.54 21.1193 148.827C19.8275 149.481 20.852 148.502 20.4487 147.711C18.2307 145.032 18.303 150.822 16.1578 147.31C15.8594 149.738 18.3907 151.864 20.4871 155.891C17.3509 154.25 15.1875 148.44 15.1654 145.658C15.9839 145.409 16.7814 145.842 17.5683 144.944C15.1721 143.162 12.3592 138.897 10.1713 136.686C9.95198 135.724 10.6369 135.313 11.0023 134.668C8.3178 133.242 7.26359 127.13 4.55991 126.627C5.16479 122.8 4.16328 119.999 5.06322 116.663C4.09955 115.297 3.24034 117.089 2.27956 116.086C0.690846 112.665 1.12335 110.461 0.358929 107.517L2.72972 106.093C3.05254 106.75 2.44475 106.872 2.15595 107.167C5.89704 108.323 8.91199 101.347 13.3605 104.934C11.3757 104.972 10.0739 107.698 8.59255 107.798C17.9967 108.834 27.729 101.166 36.4774 96.2763C35.9406 98.6648 37.8583 96.8446 38.9393 96.3169C36.3783 93.7836 42.8949 94.4881 44.2867 93.1053C43.6152 91.8678 43.0721 93.4702 42.4634 93.4712C42.8125 90.77 48.4224 90.6214 50.8196 89.1817C50.3914 88.5881 49.9982 89.0673 49.6021 89.1837C48.9043 87.9621 50.7324 88.201 51.0715 87.5719C51.3934 88.1078 50.9441 88.1954 50.7875 88.4717C51.3493 89.2281 51.7904 88.1124 52.3537 89.0503C57.2533 86.1076 53.3121 89.7508 50.5945 90.836C56.0158 93.596 60.9599 86.2513 66.1862 84.4493C61.6323 84.2675 59.2812 88.171 55.2714 86.5079C62.7564 82.4986 69.0781 78.641 74.3226 75.7951C74.5596 75.6527 76.3107 76.1809 76.7844 75.8357C77.941 74.8372 78.9171 71.0911 81.1715 71.6816C81.5125 71.2945 80.2845 69.966 80.785 69.6654C84.6286 70.3953 85.2862 66.5366 89.1091 64.6659C87.5089 63.1355 86.1339 66.6351 84.5284 64.4395C88.1311 64.828 89.6288 60.1002 93.3033 62.8761C92.2917 58.8046 96.6142 59.8545 98.554 57.4742C99.6814 56.1286 105.225 54.3182 108.991 51.9348C121.316 44.1073 135.914 32.605 151.727 24.0196L153.518 22.9438C153.268 24.7954 150.359 25.0842 149.072 26.3433C148.237 27.8777 145.074 29.4738 142.545 30.9926C144.496 33.3455 146.162 29.9138 148.021 30.6812C148.123 33.4762 144.212 34.2453 141.526 36.0405C145.208 36.3815 147.058 32.718 151.358 30.865C150.852 30.5003 150.321 30.3329 149.791 30.2864C149.168 28.4126 151.165 29.8871 151.647 30.6909C169.491 21.2502 182.087 10.8899 200.214 3.77054L202.585 2.34665C203.002 1.5492 204.83 1.78809 203.512 2.51866C202.436 3.65116 199.711 3.82922 199.672 5.55428C198.818 4.60905 198.093 6.68498 197.237 5.55832C196.887 8.13849 193.25 6.79818 192.791 8.95782C195.372 10.689 195.996 9.22071 198.267 8.64633C197.866 11.3791 194.776 12.2625 192.985 13.3383C194.785 13.4721 196.585 13.4849 197.527 12.1291C197.915 14.2663 196.307 15.1709 196.535 17.2216C199.034 18.5164 201.369 15.9593 203.803 15.8343C203.721 15.4584 202.873 15.4203 202.875 15.6623C202.645 9.96701 214.361 12.1065 216.289 8.33511C216.666 9.14176 215.82 9.22468 215.426 9.58296C217.018 10.1457 216.924 8.31828 218.724 8.33108C218.981 10.7288 214.931 10.6093 216.198 13.5549C213.645 15.392 212.273 15.9123 209.349 17.6684C208.205 16.8367 211.743 15.8053 212.61 14.9808C210.882 14.0134 209.232 16.1592 206.882 16.902C207.554 18.2604 208.037 15.7825 208.77 18.0165C202.887 20.4559 200.381 24.8777 195.163 27.7079C199.102 27.1045 202.909 23.2984 206.786 21.4566C206.479 22.9165 205.349 23.8992 203.873 24.6642C206.825 26.4159 208.481 21.7141 210.787 22.0311C213.98 20.8425 210.45 22.902 208.738 23.9909C206.737 25.3142 204.1 26.5939 203.712 27.7384C203.172 26.4219 206.745 29.6845 205.31 29.0269C208.817 30.6278 210.826 26.9904 214.917 25.5058C214.631 29.5663 207.906 32.633 205.542 34.8431C207.188 35.5556 208.705 33.1865 210.315 32.7052C211.079 32.2464 210.926 32.8857 211.276 33.6477L214.542 31.6859C215.223 30.7907 217.63 30.5606 215.76 31.6838C214.081 33.6641 210.947 35.6072 207.661 35.0289C206.949 35.4561 207.355 36.4888 206.191 36.6406C209.871 36.6793 215.592 33.9114 219.058 30.432C219.516 31.4331 219.912 31.3167 220.335 31.1845C221.977 34.6949 219.058 33.7137 218.061 34.7987C214.282 38.8913 211.646 43.5736 204.491 45.9258C203.719 45.3565 208.486 42.3719 204.427 44.4455C203.145 42.9672 204.495 43.0675 204.942 42.6171C202.019 41.152 200.299 44.5549 197.99 43.8145C196.52 42.0236 198.72 42.3434 199.111 41.6222C198.365 41.0371 197.681 41.5089 196.933 40.6819C197.481 39.6843 200.377 37.7021 202.565 36.5704C189.733 40.5702 182.393 46.1938 171.548 53.6797C174.087 53.431 176.534 51.5968 179.067 50.6827C178.634 52.7661 177.361 52.4369 176.504 54.4709C180.177 53.7233 182.285 52.5181 185.439 49.8333C184.231 47.7028 183.22 50.3761 182.076 49.6049C185.277 46.0418 191.835 41.9814 196.965 41.3918C194.037 42.6036 192.092 44.3187 188.641 46.3912C191.34 46.2894 192.308 44.8574 194.659 44.296C195.292 44.0373 192.704 48.0832 192.61 46.2558C190.092 49.1051 186.347 54.0891 182.908 54.3315C182.96 54.2998 182.554 53.0856 182.527 53.041C181.344 54.1158 180.861 56.5936 179.679 57.7289C176.264 60.9348 172.34 63.4131 167.804 65.59C170.077 68.4787 171.904 61.8518 174.176 64.7406C173.063 64.5584 170.964 66.7917 169.441 68.3141C174.199 67.6436 175.687 64.9274 180.259 64.0652C180.311 64.0336 180.216 65.4274 179.685 65.139C183.459 67.126 187.266 59.8568 192.262 59.1044C192.141 60.5745 193.443 61.1298 191.463 61.8326C195.511 61.6497 195.259 59.8567 199.562 58.4875C198.142 62.9864 192.875 62.9294 190.793 67.4609C190.63 66.8906 190.467 66.3202 190.728 65.9806C187.303 67.8559 186.454 71.0391 182.436 71.69C182.865 72.2835 183.232 71.8201 183.654 71.688C183.011 74.0188 178.591 74.1208 178.693 76.9158C181.38 75.3021 185.019 73.6026 187.301 71.0166C188.13 72.0986 187.497 72.2969 187.076 72.671C191.692 70.6885 198.999 67.5157 203.756 63.382C203.195 62.6861 202.751 63.3784 202.249 63.5581C204.738 60.3012 210.731 58.4637 212.59 55.8285C211.915 54.2282 211.34 55.1205 210.702 54.714C210.876 53.3332 213.685 53.7125 214.864 52.2143C212.26 50.9827 209.917 55.8539 207.21 51.5854C207.27 52.5819 206.241 52.8965 205.45 53.3711C206.731 54.6075 207.821 51.9472 209.135 54.1355C207.766 55.0187 205.575 55.727 202.699 53.5045C202.458 56.5053 198.883 56.2824 197.03 56.1803C197.296 53.1033 202.659 55.1691 201.996 51.6782C200.799 50.9386 200.379 51.3732 199.883 52.2181C201.374 46.5831 211.562 43.0163 216.151 40.9287C218.092 42.072 215.713 42.4678 215.03 43.121C216.966 43.6595 215.595 44.3007 214.515 44.9494C219.977 42.8236 223.451 40.3118 230.01 36.3724C230.956 35.5005 231.021 37.1017 230.042 37.0823L228.567 37.9683C227.67 38.3853 229.114 40.192 227.446 40.1606C226.682 40.6194 226.836 39.9802 226.486 39.2182C225.887 40.4288 227.344 40.6472 226.904 41.9443C223.824 43.9768 220.703 44.3317 217.653 46.7718C224.569 44.441 229.522 41.5876 235.615 38.9611C232.539 41.5984 226.495 47.0516 222.62 49.0144C221.215 48.7038 223.616 47.748 224.089 47.4027C222.595 45.93 221.261 47.886 219.836 48.4379C222.241 51.308 216.938 50.0573 215.068 51.3015C215.74 52.5389 216.283 50.9366 216.865 50.9514C218.297 51.2462 215.869 52.2179 215.396 52.5632C218.42 53.4206 219.723 50.8152 222.915 49.5661C222.183 50.7349 221.752 53.1206 219.778 54.4281C225.433 53.3406 231.037 45.7214 237.354 44.6013C238.625 48.0912 235.152 47.2608 233.9 49.6531C237.137 50.6864 240.02 47.0713 241.741 47.192C237.52 52.2793 230.079 55.0474 224.01 60.8188C226.325 62.2849 226.174 60.0054 227.979 60.6834C227.414 59.4432 226.941 59.9094 226.44 60.1495C225.972 57.9389 228.826 60.661 229.771 59.6076C229.876 59.5443 229.595 57.4648 229.674 57.4173C230.963 56.4607 237.069 55.4671 233.643 57.2819C237.074 56.0719 238.436 54.2815 241.709 53.1664C242.291 53.1208 242.033 53.9442 242.702 54.8188C243.592 53.6156 246.237 53.364 246.193 51.2026C247.712 55.8202 241.504 53.9583 241.876 57.5023C243.297 59.8087 244.49 56.6618 245.786 56.6123C242.986 53.919 248.649 57.2018 249.664 55.0123C249.491 56.5141 247.173 57.9064 245.824 58.048C248.993 60.5198 251.687 53.1289 254.883 55.5848C249.226 59.8935 245.66 64.1015 236.894 70.0956C238.289 72.4178 239.668 72.7442 240.901 71.3959C240.126 70.4032 239.474 71.6454 238.691 69.7455C239.756 70.5642 240.73 69.8579 241.764 70.148C240.316 71.0182 243.578 71.9147 240.966 72.8762C243.643 73.4555 245.525 70.4416 248.136 69.2986C247.734 71.9105 245.116 72.2672 244.618 72.8702C244.33 73.2256 245.053 74.25 245.289 73.9866C244.006 75.7295 244.204 74.091 240.805 75.9504C240.308 76.6744 241.683 76.5774 241.507 77.7768C238.474 79.0519 237.78 81.7168 235.039 83.1808C235.467 83.7743 235.861 83.2951 236.257 83.1787C235.234 84.3401 234.633 85.4297 232.706 86.0403C233.806 87.8713 234.714 85.5637 235.78 86.4428C233.108 89.9919 228.644 91.1537 224.801 93.7659C224.185 92.9202 224.527 92.6541 224.098 91.9395C220.963 93.8222 221.584 91.9306 224.382 91.0398C221.777 86.2846 218.851 91.0805 217.398 91.5273C218.861 92.3505 220.166 90.108 221.593 89.7375C222.337 90.1412 222.529 91.0586 221.915 90.2734C217.704 93.3491 214.204 95.9371 208.822 98.1364C208.139 98.6687 207.387 97.3578 206.645 97.196C204.567 98.9297 204.441 99.6741 202.193 99.8698C198.86 100.17 203.534 98.7605 203.346 98.4479C202.621 97.1212 199.524 100.379 198.288 101.486C199.589 101.98 199.618 102.327 198.353 102.966C199.42 104.026 200.358 102.066 201.362 101.888C201.419 105.803 204.19 101.405 204.339 100.1C205.91 101.405 207.381 99.9742 208.919 100.327C213.141 98.642 207.134 102.128 205.079 103.362C200.864 105.894 196.775 107.62 195.055 110.902C193.819 108.606 186.122 115.963 187.819 112.999L190.19 111.575C191.262 109.959 193.212 108.849 194.577 107.421C188.003 106.144 184.071 114.339 179.146 117.418C182.294 117.229 185.282 113.49 188.463 114.071C188.697 116.908 185.116 115.959 184.682 117.861C187.01 117.739 189.298 115.939 191.568 115.184C191.767 120.169 187.091 117.994 185.712 120.949C190.703 122.934 195.409 115.551 199.512 115.638C199.834 116.174 199.385 116.262 199.228 116.538C200.084 117.665 200.837 115.876 201.631 115.824C201.173 114.823 200.777 114.939 200.382 115.116C201.611 113.284 204.497 113.434 205.439 112.079C205.762 112.736 205.154 112.858 204.865 113.153C210.03 113.575 214.417 106.018 220.709 105.156C220.143 103.916 219.671 104.382 219.143 104.578C219.501 102.965 220.211 102.477 221.192 102.618C218.187 100.898 215.245 106.98 211.457 103.239C218.488 102.115 220.817 95.4291 227.944 96.314L228.266 96.9104ZM4.93009 119.903C5.35876 120.557 5.78695 121.15 6.20651 120.655C16.1437 115.477 27.3803 107.27 37.1322 102.081C36.3999 99.8474 35.9435 102.37 35.2442 100.967C37.1073 98.9364 37.6236 100.632 39.2132 100.831C41.7833 97.8295 48.7348 96.632 52.563 92.0844C51.5399 93.2458 49.8713 93.0934 50.3852 91.144C47.7069 93.8464 41.6765 94.3691 41.5462 97.9719C36.4325 97.2756 33.2896 101.472 30.1807 103.279C29.8579 102.622 29.9566 101.712 29.1883 101.626C24.2897 111.374 8.22664 108.382 4.95644 119.887L4.93009 119.903ZM157.936 149.602C156.862 151.037 154.098 149.598 154.064 151.928C155.096 151.855 158.924 150.65 157.936 149.602ZM118.557 170.275C123.147 168.248 116.977 167.943 116.155 170.989C116.466 170.195 117.74 170.645 118.557 170.275ZM193.313 121.61C190.677 122.95 188.868 121.788 187.65 125.011C188.729 124.242 193.143 123.535 193.313 121.61ZM182.876 127.149C180.24 128.55 179.245 129.816 176.923 130.725C179.159 132.42 182.546 128.927 182.876 127.149ZM172.503 134.109C169.714 136.209 167.428 134.969 166.582 138.394C168.212 136.99 172.885 135.52 172.503 134.109ZM164.592 134.424C164.119 134.89 165.286 135.222 164.972 135.714C164.287 136.126 160.887 137.925 162.923 137.674C164.946 135.73 168.097 135.843 169.167 133.925C170.579 135.142 173.184 133.213 172.755 132.499C170.033 133.1 167.311 133.52 164.592 134.424ZM135.044 149.922C135.581 150.815 134.415 150.725 134.819 151.576C135.507 151.528 135.036 152.236 135.2 152.866C137.858 150.966 142.229 151.38 143.905 149.158C143.119 150.237 141.732 148.882 141.695 147.507C139.448 147.824 140.791 150.299 138.809 150.759C138.221 150.019 137.877 150.043 137.817 149.107C135.487 148.987 136.223 151.705 135.124 149.995L135.044 149.922ZM176.595 129.463C178.277 127.967 181.581 127.441 182.227 125.352C180.544 126.848 177.24 127.374 176.595 129.463ZM124.156 158.709C125.127 157.64 126.164 158.233 127.165 157.631C126.921 156.867 126.73 156.191 126.779 155.615C127.668 157.694 128.317 155.968 128.286 155.439C128.91 157.373 131.006 158.059 130.464 156.38C129.829 156.457 130.087 155.633 129.471 154.727C128.685 155.686 128.327 153.896 128.189 153.249C125.049 151.124 121.567 159.232 120.664 155.52C120.034 156.202 116.934 155.816 118.293 156.944C118.794 156.764 119.292 156.101 119.8 156.768C116.695 159.058 113.262 159.966 113.751 164.898L115.542 163.822C113.584 160.562 116.918 160.504 117.526 160.382C117.955 161.097 117.294 161.19 117.591 161.862C119.711 162.23 121.019 153.605 123.26 159.187C124.505 159.29 122.784 155.887 124.092 157.229C123.83 157.569 123.993 158.139 124.13 158.665L124.156 158.709ZM113.563 161.304L112.958 161.668C111.862 160.321 114.595 161.231 113.472 159.839C110.251 160.802 107.124 163.713 103.802 161.941C103.786 163.287 104.558 163.796 104.51 164.493C100.394 166.114 96.4391 171.346 91.7401 172.892C90.024 173.436 88.1068 171.975 86.2638 173.203C84.5789 174.337 84.4424 177.153 81.8766 177.357C82.3364 178.6 81.8 181.049 80.1764 179.898C80.5706 179.539 81.39 179.412 81.0399 178.65C80.6218 179.326 78.6883 179.151 79.2808 180.435C80.5725 179.781 79.548 180.761 79.9513 181.552C84.759 180.366 85.5334 174.553 92.4375 174.053C89.7779 175.772 94.2398 174.368 95.2211 174.629C95.2374 173.343 94.6952 171.724 95.3763 170.829C99.286 169.879 102.02 170.85 105.433 170.744C105.635 169.469 106.775 169.695 105.015 168.018C105.759 168.361 106.443 167.889 107.16 168.249C104.945 165.872 107.395 164.401 108.539 165.172C108.917 166.1 107.886 166.233 109.247 167.724C109.341 166.21 110.969 167.845 110.717 166.113C110.214 166.111 109.682 165.762 109.118 164.824C109.473 162.849 113.32 164.002 113.564 161.425L113.563 161.304ZM121.276 162.687C122.563 161.428 125.473 161.139 125.723 159.288C124.436 160.547 121.526 160.836 121.276 162.687ZM145.766 143.482C145.109 144.18 144.293 144.731 144.355 145.849C145.011 145.151 148.352 145.879 147.048 144.961C146.652 145.077 146.222 144.302 145.766 143.482ZM93.2306 177.283C95.3078 175.549 99.0072 174.786 100.048 172.46C97.9703 174.193 94.2709 174.957 93.2306 177.283ZM83.1153 183.358C84.4022 182.099 87.3113 181.811 87.5613 179.959C86.2744 181.218 83.3653 181.507 83.1153 183.358ZM78.8943 185.104C79.4211 184.787 81.2244 185.223 81.2651 183.68C80.3699 184.278 79.0921 183.344 78.8943 185.104ZM76.6465 182.018C75.3088 183.55 71.5199 186.373 68.934 187.379C70.8513 188.84 78.5236 185.083 76.6465 182.018ZM177.206 123.08C173.045 125.701 169.628 125.383 166.511 129.504C170.786 127.908 174.791 125.564 177.206 123.08ZM65.3457 188.805C66.3094 190.171 63.3912 189.31 65.1527 191.169C66.3444 191.243 66.6978 189.086 65.3457 188.805ZM103.474 160.679C102.79 161.211 102.075 161.155 101.329 160.448C104.438 158.702 106.16 155.542 110.259 155.085C108.351 158.175 105.484 157.042 103.79 160.489C105.894 162.142 109.373 160.235 112.243 158.39C111.004 155.67 110.058 159.824 108.88 158.161C111.479 155.506 115.103 155.153 117.204 153.162C115.804 153.517 114.346 153.238 112.978 154.181C112.522 153.422 112.385 152.896 112.275 152.355L103.661 157.528C102.283 153.92 101.259 158.363 99.9761 156.764C100.5 156.024 102.538 156.137 102.025 154.804C100.989 154.272 99.954 153.982 98.9195 153.692C99.5685 152.087 100.348 150.282 102.373 148.64C102.847 148.295 105.248 147.339 103.843 147.028C100 149.822 97.5267 151.612 93.1534 154.177C95.0333 157.606 96.5918 153.874 98.3457 154.766C95.6119 157.137 92.5686 157.202 91.9096 160.88C92.3588 160.792 92.4695 161.394 92.5801 161.996C95.0884 161.219 95.7891 159.461 97.9597 159.494C86.0875 167.658 68.6542 172.112 61.0807 181.644C61.9763 181.106 62.8422 180.16 63.8643 182.22C61.597 183.339 60.0902 183.575 58.549 186.142C62.074 183.417 64.884 183.978 67.8008 181.314C68.1773 182.06 67.9972 182.716 68.7611 182.257C78.1341 176.02 87.5771 171.928 96.0985 165.109C95.2005 165.344 94.2728 165.172 93.3149 164.532C96.5717 164.703 101.437 164.09 103.527 160.647L103.474 160.679ZM135.585 141.393C135.189 141.509 134.796 141.989 134.368 141.395C131.786 142.946 130.182 144.213 132.899 143.007C133.347 142.798 133.921 141.725 134.696 142.657C133.93 142.934 133.67 143.455 134.181 144.485C135.58 144.01 135.197 142.477 135.559 141.409L135.585 141.393ZM122.397 147.066C120.931 149.161 115.297 149.628 114.974 152.253C116.189 152.009 117.311 149.877 118.562 150.827C113.761 152.86 126.747 151.624 122.343 147.037L122.397 147.066ZM217.603 90.6145C218.833 88.8428 221.862 90.305 222.055 87.9407C220.834 87.5194 215.829 90.5254 217.603 90.6145ZM196.922 99.3289C196.473 99.4769 194.708 100.537 196.058 100.577L202.591 96.6532C203.127 97.4858 203.691 98.6051 204.189 97.9416C204.976 97.1041 206.186 96.074 207.74 95.08C208.714 94.4947 214.356 91.7138 211.58 92.0444C210.015 91.5868 208.636 94.6026 206.999 91.818C207.735 91.1936 212.066 89.9295 211.676 87.4899C211.121 87.6407 210.741 86.4107 210.684 85.8375C200.146 88.7633 195.85 94.3214 188.082 99.4119C188.754 100.77 186.847 100.579 188.211 102.312C189.536 102.489 190.793 100.822 192.148 101.467C192.583 102.907 189.853 102.48 190.421 103.962C192.35 103.654 195.805 102.005 192.405 100.522C195.011 98.7746 197.13 95.6183 199.866 96.7707C198.627 97.4539 197.362 98.1528 196.921 99.2685L196.922 99.3289ZM230.914 73.687C230.552 74.7552 229.047 75.1732 230.148 77.1251C231.117 75.9349 232.187 77.3584 233.189 76.8177C231.765 74.1484 230.91 76.4848 230.914 73.687ZM80.2285 166.437C78.5771 168.462 75.0783 164.486 74.4624 166.922C76.1091 167.635 80.7496 168.737 80.2285 166.437ZM221.121 80.2982C219.427 80.343 216.737 81.5939 217.249 82.6238C218.307 82.5353 222.201 83.0521 221.121 80.2982ZM81.7037 165.551C82.2042 165.25 82.1994 164.645 81.9288 163.896C77.5794 166.144 78.5891 166.631 81.7037 165.551ZM87.4956 158.305C85.6119 157.734 83.1529 158.057 82.9527 159.514C85.2417 161.117 85.4284 157.966 87.4956 158.305ZM70.6864 164.693C70.502 164.804 70.3976 164.988 70.7185 165.403C71.1677 165.316 71.2784 165.918 71.389 166.52C74.8465 165.294 77.1953 164.43 80.9306 161.518C77.6819 159.033 72.5155 165.053 71.3244 165.039C71.6404 164.85 71.1323 164.182 70.7127 164.678L70.6864 164.693ZM199.409 79.1798C200.668 77.8156 202.025 78.6416 203.287 77.5798C201.905 76.951 197.904 76.3765 199.409 79.1798ZM203.957 71.9515C197.301 73.7006 188.887 80.8196 183.436 84.276C190.248 82.19 196.237 76.466 201.651 74.8557C202.187 75.7488 201.022 75.6587 201.425 76.51C201.844 75.8336 203.777 76.0092 203.185 74.7243C200.297 74.453 204.469 73.1023 203.983 71.9961L203.957 71.9515ZM191.819 73.2863C194.905 72.0401 202.254 70.9077 203.119 66.4991C198.61 68.5393 194.627 70.3234 191.819 73.2863ZM208.37 61.0972C210.306 61.5752 211.323 59.6276 212.623 60.062C210.568 57.8934 209.579 60.067 208.37 61.0972ZM216.367 48.1518C215.504 49.4601 212.711 47.795 213.712 50.4754C214.613 50.6028 216.801 49.4711 216.367 48.1518ZM192.006 63.512C191.12 61.9778 190.835 62.6961 190.692 61.3237C189.201 63.6165 188.611 62.634 187.806 64.576C185.454 61.7347 183.485 67.0497 180.603 67.3832C183.59 70.2681 183.527 65.627 185.435 65.9999C185.279 66.2763 184.856 66.348 185.151 66.8997C188.136 66.2005 190.325 65.1293 192.006 63.512ZM82.3543 117.397C86.8593 114.752 84.8808 115.576 82.2896 115.917C84.3012 112.582 89.9571 114.897 90.6459 111.627C89.1185 112.605 89.4839 111.961 89.6856 110.685C86.4469 112.812 79.9174 113.817 78.1008 118.372C79.393 117.778 82.0387 117.647 79.2804 116.934C80.2814 116.333 81.3169 116.744 82.3538 117.337L82.3543 117.397ZM98.8737 104.498C95.8808 107.572 96.5125 107.132 99.8661 106.15C100.367 105.85 100.389 105.29 100.091 104.496C99.6951 104.612 99.3019 105.092 98.8737 104.498ZM98.707 100.162C98.3809 102.424 95.6355 103.344 92.7537 103.738L93.7461 105.39C95.569 104.964 99.7468 104.46 98.707 100.162ZM82.998 111.785C84.3549 112.671 85.5814 110.476 86.876 110.185C87.0877 110.179 90.1473 108.828 90.1367 107.497C87.1509 108.136 84.9344 108.981 82.6115 109.768C84.1417 112.495 85.3755 107.865 86.8703 109.459L82.998 111.785ZM53.7026 125.673C53.6355 123.89 60.2628 125.196 59.3719 122.997C59.5597 123.309 59.8001 123.59 59.9835 123.359C58.2325 122.83 53.5828 123.921 53.6758 125.628L53.7026 125.673ZM45.0509 129.41C44.603 129.679 42.4933 130.643 43.8976 130.832L46.5844 129.218C47.7277 129.869 48.8015 128.434 49.883 127.967C50.2714 126.883 50.7068 125.041 52.2538 126.543C51.965 126.838 51.3572 126.96 51.68 127.616C53.5977 125.796 55.3291 123.845 56.6088 121.679C51.6805 124.335 50.0587 126.767 45.024 129.366L45.0509 129.41ZM174.262 48.7685C174.644 50.2404 177.422 46.749 178.804 47.5593C178.268 46.6661 179.433 46.7562 179.03 45.9049L174.262 48.7685ZM194.75 35.734C195.527 33.6264 197.693 36.397 198.016 33.7722C195.619 31.8093 193.077 35.0373 192.057 36.622C192.914 34.467 197.573 37.8672 194.75 35.734ZM189.596 36.5814C190.643 38.5045 187.835 38.1252 188.217 39.6576C189.648 39.8314 192.663 39.6003 192.991 37.5198C191.461 38.1955 191.33 34.9929 189.596 36.5814ZM178.869 42.2948C180.627 40.3881 184.069 40.5691 184.822 38.7192C184.426 38.8356 184.033 39.3148 183.604 38.7212C185.293 38.0716 184.881 36.1921 185.267 34.7452C183.867 35.1604 182.472 36.0594 181.008 35.0547C183.593 33.9881 186.137 31.0019 188.758 31.1291C187.468 31.9043 184.596 33.6288 186.195 34.9172C187.557 33.1269 189.77 31.8584 189.616 29.1555C175.964 36.4436 167.86 42.5865 155.843 52.4173C160.736 51.97 164.396 46.2473 168.651 45.454C167.412 46.1371 166.174 46.8203 166.345 48.3583C168.93 47.2916 171.474 44.3055 174.095 44.4326C171.746 45.2964 171.285 47.2746 169.069 48.1802C171.7 49.5169 171.948 47.4234 173.741 49.8711C175.077 44.8149 182.23 45.684 184.108 42.1862C183.713 42.363 183.29 42.4347 182.832 41.4336C184.079 41.8391 186.91 41.6582 187.026 39.6438C184.753 40.0972 181.934 41.7296 178.895 42.279L178.869 42.2948ZM102.643 85.8272C106.271 86.0184 105.898 82.4744 108.918 82.7876C105.623 81.1206 103.04 85.8318 102.643 85.8272ZM86.2845 95.6521C87.944 94.6554 88.819 91.5168 90.6984 91.5427C88.7927 91.5327 85.7154 93.9885 83.8437 94.9304C74.1943 99.6927 62.3528 108.385 54.3932 112.618C64.3759 109.843 77.4062 100.863 86.3113 95.6967L86.2845 95.6521ZM53.7605 112.937C51.895 114.666 49.5572 113.578 48.413 116.149C50.0908 117.451 54.228 115.148 53.7605 112.937ZM150.055 46.8996C150.727 48.1974 151.3 47.0027 151.943 48.014C161.384 40.2175 177.2 35.5185 184.944 27.4645C182.616 27.5867 180.39 30.5039 177.961 27.952C182.883 24.4492 188.156 25.2924 192.367 22.2772C191.866 22.4569 191.368 23.1204 190.86 22.4533C189.759 20.5013 192.275 20.6918 191.015 18.6533C190.009 18.6497 189.104 21.2597 187.974 18.9608C188.013 17.2357 190.738 17.0576 191.814 15.9251C179.429 19.4745 168.229 28.9963 157.783 33.3866C156.916 37.6137 147.19 39.3233 146.005 43.4379C148.907 42.3024 151.683 38.569 154.71 39.7289C152.157 44.9081 147.193 43.0888 145.909 47.9924C147.278 47.1697 148.704 46.6783 150.135 46.973L150.055 46.8996ZM84.0099 85.8371C81.9714 85.7852 79.3818 86.3075 78.0244 88.7027C79.1821 87.8251 79.6126 88.7211 80.1055 87.4528C80.5346 88.1674 80.1926 88.4335 80.8081 89.2792C82.2272 88.0015 84.0305 88.4377 84.0099 85.8371ZM78.0886 90.1225C76.1604 90.6122 71.1022 90.2472 73.6368 92.7963C71.6147 94.8007 68.2457 93.8465 68.0053 96.9077C72.2589 95.933 75.8596 92.7374 78.0886 90.1225ZM53.3361 102.801C56.6332 104.71 62.9222 100.082 65.9511 98.2023C60.2382 98.7166 58.3794 101.291 53.3361 102.801ZM84.5836 84.7633C85.3629 86.2398 86.078 86.2964 86.7614 85.7037C85.9822 84.2271 85.2671 84.1705 84.5836 84.7633ZM38.4848 112.45C34.9301 114.767 29.7459 115.207 27.4738 119.063C33.6436 116.087 39.9035 114.454 46.0101 110.179C41.6679 106.649 40.6444 111.092 38.4848 112.45ZM127.126 59.2123C126.417 59.8814 123.01 60.7732 125.11 61.9425C124.57 60.5655 128.524 61.8974 127.126 59.2123ZM164.546 28.5344C163.314 30.0037 162.6 26.7863 162.621 25.9842C160.231 28.3916 157.878 28.6506 156.126 31.3435C158.109 31.1851 159.777 27.8744 162.401 28.3039C162.835 29.6232 161.141 29.6681 161.602 31.0321C162.363 30.2709 165.77 29.2581 164.546 28.5344ZM176.62 19.0348C175.02 17.5649 171.995 19.9286 171.53 21.3625C173.636 19.9759 176.345 21.1441 176.62 19.0348ZM182.573 15.4592C183.422 15.6787 187.593 14.3281 185.518 12.9615C185.52 13.2639 178.218 16.9811 182.573 15.4592ZM150.784 35.281C151.202 34.6045 153.136 34.7801 152.543 33.4952C151.479 32.858 150.324 33.9775 150.784 35.281ZM165.029 25.996C164.461 24.4534 170.036 23.232 167.652 22.9624C166.365 24.2215 163.456 24.5103 163.206 26.3619C163.783 25.7115 164.454 26.9489 165.003 26.0118L165.029 25.996ZM72.8316 81.3696C73.5127 80.4744 75.816 80.5495 75.4864 79.0459C74.8054 79.9411 72.5021 79.866 72.8316 81.3696ZM78.3663 75.0679C79.0474 74.1727 81.3507 74.2477 81.0211 72.7442C80.3401 73.6394 78.0368 73.5643 78.3663 75.0679ZM120.212 48.4163L119.22 46.7639C118.308 48.5877 115.162 49.0794 114.543 51.0921C116.894 50.5912 119.429 49.8586 120.212 48.4163ZM102.121 60.0716C103.748 58.2439 105.837 58.0827 106.857 56.498C104.835 55.2208 101.892 57.8394 102.121 60.0716ZM7.58438 110.834C5.71409 111.957 3.57798 112.936 2.55879 114.582C5.52061 117.603 7.25487 112.673 7.58438 110.834ZM65.8869 180.276C65.8395 180.973 66.9832 181.684 65.372 182.105C65.2087 181.534 65.0454 180.964 65.3074 180.624C64.8792 180.031 64.486 180.51 64.0899 180.626C63.655 179.186 65.8261 179.28 66.4549 178.477C64.8921 181.664 72.3015 178.125 67.4473 180.129C67.3683 180.176 67.1159 181.726 65.9401 180.305L65.8869 180.276ZM243.903 42.7944C244.802 42.6799 246.04 41.8758 246.274 41.3705C247.603 42.031 244.949 44.5361 243.903 42.7944ZM190.975 53.6791C190.975 53.6791 190.26 53.6224 190.653 53.1432C192.515 50.9313 196.77 50.1985 193.056 52.4293C192.529 52.7457 191.952 53.3961 190.975 53.6791ZM235.946 0.54008C236.136 1.21556 233.755 1.30891 232.969 2.32785C232 0.236331 234.968 0.762583 235.946 0.54008ZM222.126 33.4509C220.349 32.9384 222.244 31.6784 222.931 31.4485C222.259 30.211 221.716 31.8133 221.134 31.7985C221.023 31.1965 220.912 30.5946 220.463 30.6821C221.336 30.6438 224.092 27.7126 225.366 31.4444C225.683 31.3755 225.521 31.0471 225.333 30.7345C226.571 33.2726 222.924 30.6017 222.073 33.422L222.126 33.4509Z" fill="url(#paint0_linear_147_1075)"/>
<defs>
<linearGradient id="paint0_linear_147_1075" x1="253.884" y1="29.7511" x2="24.8916" y2="167.283" gradientUnits="userSpaceOnUse">
<stop stop-color="#34873C"/>
<stop offset="1" stop-color="#B3CD36"/>
</linearGradient>
</defs>
</svg>
