<svg width="234" height="347" viewBox="0 0 234 347" fill="none" xmlns="http://www.w3.org/2000/svg">
<path d="M10.4717 160.584C7.3433 161.249 16.8497 164.566 12.3581 164.221L6.90341 160.989C7.38315 163.288 4.34356 163.603 5.3613 161.284C8.5341 160.444 0.302138 158.487 3.47494 157.647C5.45135 160.33 10.1654 159.597 10.4717 160.584ZM178.911 257.989C178.684 261.18 182.918 258.651 184.366 261.222C184.77 257.632 181.288 258.592 178.911 257.989ZM270.274 313.343C272.045 308.951 265.569 309.447 263.901 307.148C263.76 311.397 268.431 309.934 270.274 313.343ZM40.436 174.614C39.7255 177.417 43.3386 176.636 44.395 176.96C45.1062 173.754 41.4463 175.918 40.436 174.614ZM135.807 229.925C130.358 224.076 123.231 219.953 115.924 218.141C120.537 223.596 129.426 227.151 135.807 229.925ZM203.905 269.073C196.635 270.106 216.048 274.859 203.905 269.073V269.073ZM84.3033 195.674C85.2345 192.598 81.8444 191.999 79.9535 190.577C79.5545 191.852 81.661 195.518 84.3033 195.674ZM89.0252 191.116C89.9108 188.819 86.4749 189.101 85.5965 187.875C85.4152 190.387 86.9986 191.426 89.0252 191.116ZM280.821 303.471C281.755 298.886 277.037 301.33 274.884 298.744C273.78 300.608 278.134 303.29 280.821 303.471ZM302.155 316.115C294.938 313.349 298.248 310.071 302.155 316.115V316.115ZM44.5625 159.727C48.9274 157.477 47.6164 152.468 51.8875 152.984C52.2898 150.099 48.2333 152.33 46.8235 152.502C43.8061 142.048 32.7871 146.098 26.0192 138.963C29.398 144.997 37.27 150.67 44.3601 151.042C40.263 151.637 43.7852 152.213 44.2205 154.688C39.814 155.805 36.9609 151.091 33.658 150.947C35.3231 155.058 40.2514 157.273 44.4741 159.877L44.5625 159.727ZM26.7519 146.754C26.7021 149.546 31.018 149.685 32.6879 151.481C32.7377 148.689 28.4218 148.55 26.7519 146.754ZM2.61445 126.302C3.62723 126.399 4.77798 123.654 5.69886 125.611C6.23252 123.106 2.4447 123.179 1.25844 121.77C-1.07754 122.603 4.33727 123.796 2.61445 126.302ZM95.7058 176.433C96.194 174.606 95.3595 173.507 93.8195 172.796C91.3909 175.791 95.0036 175.211 95.7058 176.433ZM88.9881 166.305C88.4646 163.879 86.5741 162.255 84.1545 160.921C82.7373 164.717 88.0645 165.657 88.9881 166.305ZM318.559 285.025C310.113 280.02 300.872 276.156 291.633 271.587C289.288 276.445 293.257 274.061 295.014 276.11C291.657 281.074 299.325 278.867 304.475 280.508C310.329 282.264 311.942 289.972 318.515 285.1L318.559 285.025ZM288.639 271.022C288.117 267.489 275.697 267.786 284.059 270.827C285.951 271.545 287.847 270.351 288.639 271.022ZM282.358 262.362C278.872 265.637 277.914 260.333 275.362 259.425C275.399 262.471 279.044 268.056 282.358 262.362ZM15.0752 106.48C15.5106 108.955 22.9456 112.958 23.5211 111.485C18.9907 108.599 19.652 108.285 15.0752 106.48ZM5.45939 92.1151C5.11306 89.1891 2.95883 87.3078 0.628234 85.5236C1.50367 88.1585 2.86424 90.4763 5.45939 92.1151ZM38.662 73.3999C44.436 71.2795 44.9483 79.1407 38.662 73.3999V73.3999ZM47.9615 70.2451C44.4046 65.1141 38.9441 64.6995 35.5566 62.8935C37.8814 67.4958 44.5283 69.2181 47.9615 70.2451ZM54.9143 73.1563C55.0518 70.5172 53.248 69.5489 50.9577 69.6024C49.276 73.5433 53.4186 72.27 54.9143 73.1563ZM59.4943 73.3515C60.1938 75.8821 62.4835 76.1306 64.4651 76.2973C64.822 74.0904 60.9051 72.676 59.4943 73.3515ZM106.741 100.142C107.969 102.785 112.148 105.362 114.173 105.756C113.741 101.469 110.003 98.851 106.741 100.142ZM111.37 97.9482C110.758 95.8723 108.695 92.4328 105.962 93.5339C107.453 96.6345 109.168 97.7518 111.37 97.9482ZM116.481 97.2484L118.944 98.7083C119.474 97.8134 118.77 97.5976 118.462 97.2138C120.535 95.923 119.916 96.967 120.098 94.4545C118.862 95.6368 117.719 94.8584 116.437 97.2223L116.481 97.2484ZM70.0431 62.3719C67.9293 62.2276 66.5661 61.2182 63.5302 59.7213C61.9441 59.9905 68.1416 66.0818 70.0431 62.3719ZM73.9996 65.9259C67.8746 67.4351 72.5579 60.2346 73.9996 65.9259V65.9259ZM153.77 104.535C147.442 97.6606 138.638 95.1641 129.974 89.2232C135.906 96.0639 147.08 102.283 153.77 104.535ZM50.0018 41.8287C52.6449 41.5813 52.4619 44.8989 55.5029 43.8797C55.0686 40.9016 52.916 38.2151 50.0018 41.8287ZM59.0223 45.8646C60.2031 49.8897 65.8445 47.9931 67.4217 52.0516C67.4717 49.159 69.186 50.7796 70.6015 47.7893C64.4798 47.6882 64.2667 44.2366 59.0223 45.8646ZM133.542 88.8187C133.768 86.131 129.584 86.0699 128.134 84.4044C126.985 86.3434 132.178 88.4132 133.542 88.8187ZM64.1631 30.37L66.6264 31.8299C68.9664 29.0852 65.9266 29.5006 65.268 28.5057L64.1631 30.37ZM151.737 64.9376C150.144 68.6288 155.033 68.5032 156.571 70.3214C160.095 69.8908 151.468 67.2973 151.737 64.9376ZM80.7875 20.4719C79.5203 15.5895 73.8812 16.379 68.9129 12.2254C69.3001 16.6871 76.3477 16.3292 80.7875 20.4719ZM153.282 63.4346C153.056 66.1223 157.24 66.1834 158.734 67.8749C158.96 65.1872 154.776 65.1261 153.282 63.4346ZM188.496 73.1187C188.59 70.0509 184.181 72.2748 182.513 69.5732C180.794 70.4688 186.864 74.0664 188.496 73.1187ZM193.86 77.6076C195.675 73.2416 189.859 74.1281 189.419 73.7668C188.886 76.272 192.674 76.1992 193.86 77.6076ZM154.759 51.9156C154.533 54.6033 158.717 54.6644 160.211 56.356C161.407 53.1347 155.505 53.0633 154.759 51.9156ZM111.564 25.1075C113.502 25.1475 113.59 25.1996 114.555 26.8802C116.938 24.4635 112.539 21.8566 111.564 25.1075ZM136.464 38.6552C139.681 37.7402 142.754 42.8863 146.015 41.7961C148.319 34.8989 140.788 34.8694 137.225 32.8584C136.341 34.048 139.51 35.1198 136.508 38.5806L136.464 38.6552ZM161.895 51.2073C161.977 54.0775 166.513 54.3472 168.315 56.2212C169.644 52.6755 163.922 50.8968 161.895 51.2073ZM104.89 14.905C105.116 12.2173 100.932 12.1561 99.4381 10.4646C97.9338 13.8053 103.039 15.4204 104.89 14.905ZM111.936 15.4529C114.636 9.09222 106.176 10.6288 102.132 7.12327C103.441 12.7363 110.623 11.3495 111.936 15.4529ZM176.105 37.3592C177.199 40.829 182.703 41.6722 185.516 44.1458C184.467 40.6015 178.919 39.8328 176.105 37.3592ZM120.022 2.91275C121.117 5.87931 126.572 8.70937 129.528 6.1283C126.713 4.45985 124.38 3.98397 120.022 2.91275ZM127.155 3.41218C129.841 3.99597 131.996 5.67595 135.648 7.23587C135.257 4.58577 130.066 1.6102 127.155 3.41218ZM160.458 21.9391C154.611 16.5596 142.163 8.87998 136.132 7.52263C144.094 12.0399 154.079 18.461 160.458 21.9391ZM303.948 108.186C305.398 109.952 306.987 107.871 308.437 109.637C308.969 108.239 305.276 104.741 303.948 108.186ZM310.507 109.554C310.106 112.138 314.069 112.169 315.432 113.682C315.833 111.098 311.87 111.067 310.507 109.554ZM348.734 132.209C347.471 125.112 338.044 126.377 333.384 121.903C336.677 127.179 342.576 128.257 348.734 132.209ZM228.742 56.1592L224.255 53.5001C224.472 54.7375 226.223 60.108 228.742 56.1592ZM159.725 14.0482C159.192 16.5534 162.979 16.4806 164.166 17.889C164.699 15.3838 160.911 15.4566 159.725 14.0482ZM256.376 303.898C256.423 302.213 255.062 300.499 253.915 301.23C252.066 300.638 247.671 296.321 247.446 298.606C250.92 301.168 254.135 301.562 256.376 303.898ZM65.3041 160.935C64.3316 162.677 67.6387 160.807 68.2954 162.708C66.927 164.215 66.4462 162.418 66.1763 165.18C59.3049 165.542 54.9089 161.526 47.6002 160.318C45.6158 161.561 51.2939 163.213 52.5245 164.446C45.7473 161.84 36.2837 159.154 32.639 153.87C32.0196 155.216 33.4287 155.346 34.0881 155.938C28.6329 153.008 22.7819 149.742 15.0772 148.4C24.1782 156.111 34.6315 170.166 48.284 170.498C48.7673 171.087 47.7072 172.575 47.1791 172.362C50.9072 179.913 61.0782 181.305 68.1671 182.282C69.5361 180.473 69.2295 179.687 69.8488 178.341L72.8401 180.113C74.2091 178.305 73.1528 177.981 72.4494 177.363C93.0956 182.142 108.13 195.989 126.74 205.809C112.96 202.782 107.566 191.524 93.7351 192.396L92.2395 191.509C90.084 190.232 91.2234 193.023 92.7209 193.004C95.4476 194.922 99.4531 196.087 100.636 198.904C99.532 200.567 98.6555 198.436 97.5963 199.521C101.855 205.975 118.582 210.748 120.817 215.802C128.475 218.828 138.237 226.125 146.593 232.286C143.508 232.877 140.561 231.331 137.526 229.432C137.387 232.776 144.294 236.365 148.435 235.897C149.716 233.936 146.94 234.407 146.502 233.542C159.272 234.561 169.553 246.8 184.868 252.551C178.607 255.794 191.861 257.2 194.282 258.13C201.807 260.978 207.869 268.802 213.246 266.85C225.604 275.887 242.236 283.627 254.51 290.096C252.498 283.763 241.358 282.401 233.66 277.739C231.284 276.331 228.734 274.014 226.228 272.125C230.598 267.158 234.773 271.848 238.335 274.363C236.088 275.046 233.977 273.392 231.776 272.994C237.754 278.754 247.922 281.254 256.629 287.724C256.563 298.467 270.404 293.166 277.136 296.148C278.324 296.651 276.735 298.228 277.043 298.612C284.25 306.41 303.803 307.115 307.789 318.043C318.96 325.671 335.766 334.422 347.325 346.411C347.64 342.869 344.73 344.873 343.943 341.887C347.645 340.454 348.118 346.075 351.905 346.606C351.606 341.995 355.35 341.997 357.732 340.184C359.769 334.841 363.085 328.443 363.884 325.289C361.468 322.245 353.586 321.503 357.123 315.135C359.952 310.06 366.996 311.413 367.734 316.486C372.542 312.886 374.689 318.19 380.074 312.614C381.974 309.709 380.081 309.091 380.79 306.892C384.583 304.504 389.433 301.836 391.821 297.306C392.623 292.743 391.478 292.77 395.277 286.96C394.09 286.256 394.754 284.534 392.817 284.293C394.499 279.949 395.948 282.218 397.492 280.917C400.188 276.569 398.122 274.538 401.916 271.144C401.612 269.15 398.971 268.592 399.593 266.039C401.712 263.264 403.737 264.061 405.857 261.085C408.427 253.64 408.703 247.556 408.627 241.667C412.904 239.365 409.546 244.831 410.514 245.304C412.67 246.38 410.955 244.759 411.619 243.439C415.283 238.961 415.22 248.597 418.755 242.731C419.275 246.768 415.084 250.33 411.635 257.053C416.837 254.291 420.381 244.602 420.39 239.972C419.026 239.566 417.703 240.294 416.385 238.807C420.355 235.819 424.994 228.694 428.613 224.994C428.969 223.391 427.825 222.713 427.21 221.643C431.664 219.244 433.358 209.063 437.852 208.2C436.808 201.837 438.448 197.166 436.918 191.624C438.508 189.342 439.955 192.316 441.544 190.637C444.154 184.929 443.413 181.265 444.656 176.359L440.697 174.013C440.167 175.109 441.179 175.306 441.663 175.794C435.449 177.754 430.363 166.175 422.996 172.188C426.299 172.231 428.492 176.755 430.958 176.907C415.319 178.723 399.049 166.058 384.444 158.007C385.36 161.976 382.151 158.966 380.347 158.098C384.584 153.858 373.747 155.094 371.418 152.806C372.523 150.741 373.442 153.402 374.455 153.397C373.848 148.906 364.511 148.713 360.508 146.341C361.215 145.349 361.874 146.143 362.534 146.332C363.684 144.293 360.644 144.708 360.073 143.665C359.543 144.56 360.292 144.701 360.555 145.159C359.627 146.423 358.882 144.571 357.954 146.137C349.772 141.288 356.366 147.312 360.899 149.092C351.905 153.737 343.606 141.564 334.891 138.616C342.467 138.269 346.418 144.742 353.074 141.935C340.58 135.337 330.022 128.979 321.268 124.295C320.872 124.06 317.963 124.956 317.171 124.386C315.237 122.736 313.576 116.512 309.83 117.517C309.259 116.876 311.29 114.653 310.454 114.158C304.065 115.41 302.933 108.995 296.553 105.92C299.201 103.357 301.523 109.167 304.174 105.498C298.182 106.18 295.644 98.3271 289.557 102.982C291.2 96.1973 284.017 97.9866 280.766 94.0446C278.877 91.8165 269.634 88.858 263.344 84.9288C242.759 72.0237 218.354 53.0261 191.957 38.894L188.966 37.1212C189.4 40.2 194.244 40.6522 196.398 42.7347C197.802 45.2799 203.082 47.905 207.305 50.4077C204.082 54.342 201.275 48.6478 198.189 49.9429C198.047 54.595 204.563 55.8365 209.049 58.7976C202.926 59.401 199.811 53.323 192.639 50.2814C193.477 49.6696 194.358 49.3858 195.239 49.3033C196.259 46.1791 192.95 48.6522 192.155 49.9946C162.37 34.459 141.309 17.342 111.075 5.67221L107.116 3.32594C106.414 2.00302 103.374 2.4184 105.574 3.62123C107.376 5.49524 111.912 5.76494 111.994 8.63513C113.407 7.05389 114.633 10.5012 116.046 8.61807C116.654 12.9082 122.692 10.6423 123.478 14.2316C119.2 17.1376 118.148 14.7003 114.362 13.7667C115.057 18.3103 120.207 19.7501 123.198 21.5228C120.203 21.763 117.208 21.8019 115.627 19.555C115.003 23.1152 117.687 24.6048 117.327 28.0194C113.183 30.1985 109.272 25.9661 105.22 25.7819C105.354 25.1556 106.763 25.084 106.762 25.4866C107.09 16.0072 87.6157 19.6818 84.3694 13.4249C83.7501 14.7709 85.1592 14.9006 85.8186 15.4929C83.1741 16.4449 83.3125 13.4031 80.3175 13.442C79.9129 17.4344 86.6519 17.196 84.5718 22.11C88.8377 25.142 91.1262 25.9944 96.009 28.8881C97.9057 27.493 92.0074 25.8113 90.5568 24.4478C93.4229 22.821 96.1903 26.3756 100.108 27.5887C99.0019 29.8557 98.1736 25.7372 96.9767 29.4616C106.79 33.4636 111.003 40.7972 119.714 45.4557C113.154 44.4901 106.78 38.1939 100.312 35.1668C100.836 37.5932 102.726 39.2174 105.19 40.476C100.295 43.4197 97.4926 35.6119 93.6598 36.1619C88.3346 34.2152 94.2294 37.6079 97.0884 39.403C100.431 41.5856 104.831 43.6893 105.488 45.5901C106.373 43.394 100.46 48.8581 102.841 47.7498C97.0217 50.4479 93.6428 44.4147 86.8212 41.9843C87.3358 48.7383 98.5564 53.7758 102.513 57.4304C99.7796 58.6322 97.2332 54.7046 94.5482 53.9196C93.2725 53.1636 93.5346 54.2258 92.9594 55.4972L87.5048 52.2646C86.3627 50.7816 82.3555 50.4222 85.4788 52.2731C88.2908 55.5519 93.5253 58.7548 98.9886 57.7603C100.176 58.4642 99.5121 60.1867 101.45 60.428C95.3274 60.5281 85.7795 55.9781 79.9776 50.2221C79.2255 51.8925 78.5652 51.7027 77.861 51.4869C75.1624 57.3444 80.0105 55.683 81.6804 57.4788C88.0086 64.2522 92.441 72.0181 104.369 75.8623C105.648 74.9074 97.6862 69.9875 104.462 73.3983C106.581 70.9258 104.334 71.1059 103.587 70.3608C108.437 67.8943 111.332 73.54 115.166 72.2855C117.595 69.291 113.938 69.8446 113.28 68.6484C114.515 67.6674 115.659 68.4459 116.895 67.0623C115.973 65.4077 111.135 62.1375 107.484 60.2756C128.875 66.8061 141.144 76.0925 159.264 88.4434C155.037 88.0543 150.947 85.026 146.722 83.5297C147.464 86.9922 149.579 86.432 151.025 89.8084C144.906 88.6002 141.386 86.6153 136.11 82.1785C138.1 78.6214 139.808 83.06 141.705 81.7655C136.344 75.8676 125.391 69.175 116.848 68.2439C121.733 70.2319 124.986 73.0668 130.749 76.4819C126.257 76.3389 124.632 73.9653 120.714 73.0542C119.658 72.6298 124.005 79.3371 124.143 76.2953C128.361 81.0122 134.642 89.2692 140.367 89.6389C140.279 89.5867 140.944 87.5623 140.988 87.4877C142.967 89.2647 143.795 93.3833 145.773 95.2609C151.488 100.562 158.042 104.648 165.61 108.226C161.856 113.055 158.752 102.046 154.998 106.875C156.849 106.561 160.364 110.257 162.914 112.775C154.988 111.706 152.487 107.2 144.87 105.81C144.782 105.758 144.954 108.077 145.836 107.592C139.575 110.935 133.169 98.8759 124.848 97.6726C125.063 100.118 122.903 101.055 126.204 102.205C119.466 101.94 119.868 98.9538 112.694 96.7174C115.101 104.19 123.866 104.044 127.374 111.564C127.64 110.613 127.906 109.663 127.467 109.1C133.186 112.187 134.629 117.476 141.321 118.52C140.614 119.512 139.999 118.744 139.295 118.528C140.388 122.401 147.743 122.527 147.601 127.179C143.114 124.52 137.042 121.728 133.219 117.447C131.85 119.255 132.907 119.579 133.61 120.197C125.909 116.944 113.72 111.735 105.762 104.903C106.69 103.74 107.436 104.887 108.272 105.181C104.099 99.786 94.1078 96.7869 90.9897 92.4199C92.0963 89.7503 93.0621 91.2297 94.1206 90.547C93.817 88.2509 89.1471 88.9095 87.1703 86.428C91.4907 84.3531 95.438 92.4361 99.9009 85.3066C99.8095 86.9655 101.526 87.4789 102.846 88.261C100.727 90.331 98.8867 85.9148 96.7211 89.5689C99.0083 91.0252 102.662 92.1825 107.426 88.4562C107.856 93.4472 113.803 93.0414 116.886 92.8534C116.412 87.7357 107.508 91.2257 108.577 85.4101C110.562 84.1678 111.265 84.8868 112.099 86.2879C109.564 76.9256 92.575 71.0898 84.9186 67.6608C81.6996 69.5822 85.6621 70.2175 86.805 71.2979C83.588 72.2129 85.8761 73.2666 87.6796 74.3354C78.5699 70.8513 72.7648 66.7056 61.8115 60.2143C60.2289 58.7725 60.1354 61.4378 61.765 61.3959L64.2284 62.8558C65.7245 63.5409 63.34 66.5615 66.1148 66.4929C67.3905 67.2489 67.1284 66.1867 67.7036 64.9153C68.7124 66.9239 66.2893 67.3017 67.0336 69.4559C72.1797 72.8079 77.3756 73.368 82.4763 77.3986C70.9449 73.5877 62.6746 68.8879 52.5095 64.5768C57.6536 68.9353 67.7649 77.9506 74.2325 81.179C76.5679 80.6484 72.5632 79.0812 71.7716 78.5113C74.2431 76.0461 76.4826 79.2879 78.859 80.1924C74.8853 84.9919 83.6983 82.8588 86.8211 84.911C85.7158 86.9767 84.7963 84.3157 83.8273 84.346C81.448 84.8505 85.4966 86.4438 86.2882 87.0137C81.2644 88.4701 79.0711 84.1473 73.7462 82.0999C74.9754 84.0376 75.716 88.0034 79.0147 90.1599C69.5932 88.4055 60.194 75.7815 49.6715 73.9792C47.5895 79.7991 53.362 78.3832 55.4679 82.352C50.0911 84.1031 45.2587 78.1154 42.3955 78.3332C49.4691 86.7574 61.8798 91.291 72.034 100.836C68.1973 103.298 68.4253 99.5031 65.428 100.649C66.3572 98.5798 67.1484 99.351 67.9844 99.7456C68.7406 96.0624 64.0187 100.62 62.4368 98.8763C62.2608 98.7721 62.7083 95.3089 62.5764 95.2307C60.4215 93.6514 50.2509 92.0577 55.9704 95.0441C50.2489 93.0641 47.9647 90.0982 42.5072 88.2746C41.5384 88.2043 41.976 89.572 40.8719 91.0338C39.3786 89.0404 34.9751 88.6476 35.0266 85.0505C32.5443 92.7492 42.8568 89.5902 42.2722 95.4913C39.93 99.3431 37.9147 94.1181 35.7568 94.0484C40.3905 89.5393 30.9981 95.0574 29.2879 91.424C29.5911 93.9213 33.4621 96.2154 35.7078 96.4379C30.4582 100.582 25.903 88.3095 20.6094 92.4276C30.064 99.5422 36.0395 106.51 50.6854 116.398C48.3872 120.276 46.0958 120.833 44.0304 118.601C45.3111 116.942 46.4079 119.003 47.6916 115.833C45.9271 117.206 44.2999 116.04 42.5813 116.533C45.0007 117.967 39.5803 119.491 43.9373 121.065C39.4869 122.055 36.3261 117.058 31.9697 115.182C32.6655 119.524 37.0246 120.092 37.8593 121.091C38.3426 121.68 37.1499 123.391 36.7544 122.955C38.9066 125.843 38.5598 123.118 44.2351 126.179C45.0694 127.379 42.7795 127.231 43.0837 129.225C48.1443 131.318 49.3244 135.745 53.8999 138.155C53.1931 139.147 52.5341 138.353 51.8739 138.163C53.5876 140.086 54.5969 141.893 57.8099 142.89C55.9979 145.948 54.4643 142.117 52.6995 143.59C57.1798 149.47 64.6191 151.359 71.0405 155.669C72.0564 154.256 71.4848 153.816 72.1919 152.623C77.4266 155.725 76.376 152.583 71.7105 151.128C75.9989 143.19 80.9154 151.142 83.3362 151.871C80.911 153.256 78.7165 149.537 76.3395 148.934C75.1049 149.613 74.7935 151.142 75.8091 149.829C82.8455 154.906 88.6944 159.178 97.6717 162.785C98.815 163.665 100.053 161.476 101.286 161.199C104.76 164.064 104.978 165.301 108.721 165.605C114.269 166.072 106.478 163.772 106.788 163.25C107.981 161.035 113.167 166.427 115.234 168.256C113.074 169.092 113.028 169.67 115.14 170.72C113.375 172.495 111.796 169.242 110.123 168.955C110.066 175.471 105.412 168.179 105.152 166.01C102.549 168.195 100.088 165.83 97.5321 166.431C90.491 163.669 100.521 169.412 103.952 171.445C110.99 175.616 117.811 178.449 120.707 183.894C122.741 180.061 135.62 192.228 132.767 187.313L128.808 184.967C127.008 182.287 123.753 180.459 121.467 178.097C132.394 175.907 139.017 189.505 147.243 194.581C142.002 194.297 136.994 188.105 131.707 189.103C131.345 193.826 137.294 192.212 138.036 195.373C134.161 195.192 130.335 192.22 126.55 190.984C126.269 199.282 134.028 195.617 136.352 200.521C128.065 203.873 120.162 191.632 113.335 191.819C112.805 192.714 113.553 192.855 113.817 193.313C112.403 195.196 111.132 192.226 109.811 192.149C110.563 190.478 111.224 190.668 111.884 190.958C109.82 187.922 105.019 188.2 103.438 185.953C102.907 187.049 103.92 187.246 104.403 187.734C95.8132 188.488 88.4397 175.956 77.9604 174.583C78.8896 172.513 79.6807 173.284 80.5609 173.605C79.9498 170.925 78.7623 170.12 77.1323 170.363C82.115 167.472 87.0711 177.564 93.3381 171.302C81.6264 169.5 77.6854 158.398 65.8347 159.94L65.3041 160.935ZM437.171 197.014C436.464 198.106 435.757 199.098 435.054 198.279C418.467 189.759 399.689 176.212 383.411 167.673C384.608 163.948 385.392 168.141 386.542 165.8C383.422 162.439 382.579 165.265 379.936 165.613C375.63 160.643 364.05 158.718 357.636 151.188C359.349 153.111 362.125 152.841 361.25 149.602C365.734 154.073 375.774 154.884 376.026 160.878C384.528 159.669 389.799 166.622 394.99 169.598C395.521 168.501 395.348 166.988 396.625 166.838C404.872 183.012 431.573 177.876 437.127 196.988L437.171 197.014ZM182.852 247.93C184.652 250.307 189.238 247.886 189.318 251.762C187.601 251.651 181.218 249.683 182.852 247.93ZM248.581 281.947C240.925 278.618 251.188 278.05 252.587 283.111C252.061 281.792 249.946 282.553 248.581 281.947ZM123.709 201.695C128.109 203.899 131.108 201.948 133.167 207.3C131.364 206.03 124.011 204.897 123.709 201.695ZM141.131 210.811C145.531 213.116 147.2 215.214 151.073 216.703C147.367 219.545 141.698 213.766 141.131 210.811ZM158.461 222.29C163.122 225.758 166.914 223.672 168.356 229.363C165.63 227.043 157.839 224.642 158.461 222.29ZM171.628 222.738C172.42 223.509 170.481 224.073 171.007 224.889C172.151 225.567 177.827 228.527 174.436 228.13C171.051 224.915 165.81 225.134 164.011 221.952C161.672 223.992 157.318 220.807 158.026 219.614C162.56 220.588 167.095 221.26 171.628 222.738ZM220.948 248.238C220.064 249.729 222.002 249.568 221.339 250.989C220.194 250.915 220.984 252.088 220.718 253.14C216.276 250.003 209.007 250.734 206.196 247.053C207.514 248.841 209.808 246.574 209.857 244.285C213.6 244.79 211.389 248.921 214.691 249.669C215.662 248.431 216.235 248.468 216.326 246.91C220.202 246.688 219.004 251.217 220.815 248.361L220.948 248.238ZM151.606 214.6C148.792 212.126 143.288 211.283 142.194 207.813C145.008 210.287 150.512 211.13 151.606 214.6ZM239.152 262.755C237.526 260.985 235.806 261.981 234.134 260.99C234.533 259.715 234.844 258.589 234.758 257.631C233.297 261.099 232.202 258.233 232.248 257.353C231.228 260.578 227.747 261.739 228.633 258.939C229.69 259.062 229.253 257.694 230.269 256.18C231.587 257.767 232.165 254.785 232.388 253.708C237.592 250.141 243.466 263.598 244.932 257.414C245.987 258.542 251.141 257.869 248.891 259.76C248.055 259.466 247.221 258.367 246.381 259.482C251.571 263.262 257.293 264.739 256.528 272.951L253.536 271.179C256.763 265.735 251.213 265.67 250.201 265.473C249.494 266.667 250.594 266.815 250.108 267.937C246.583 268.569 244.322 254.231 240.648 263.54C238.577 263.724 241.408 258.045 239.245 260.291C239.684 260.853 239.418 261.804 239.196 262.68L239.152 262.755ZM256.804 266.968L257.816 267.568C259.626 265.316 255.087 266.858 256.941 264.531C262.311 266.101 267.542 270.914 273.054 267.933C273.093 270.173 271.814 271.027 271.9 272.186C278.765 274.844 285.398 283.511 293.232 286.038C296.093 286.927 299.269 284.477 302.348 286.503C305.163 288.373 305.418 293.058 309.689 293.373C308.936 295.445 309.853 299.515 312.543 297.583C311.884 296.991 310.519 296.787 311.094 295.515C311.797 296.637 315.012 296.326 314.039 298.47C311.883 297.393 313.597 299.014 312.934 300.334C304.922 298.407 303.577 288.742 292.083 287.977C296.526 290.811 289.087 288.519 287.457 288.963C287.417 286.824 288.304 284.125 287.161 282.642C280.646 281.098 276.107 282.741 270.425 282.598C270.077 280.478 268.183 280.866 271.095 278.058C269.861 278.636 268.717 277.858 267.527 278.462C271.191 274.487 267.1 272.062 265.203 273.357C264.583 274.904 266.301 275.116 264.049 277.611C263.878 275.091 261.186 277.828 261.588 274.943C262.425 274.935 263.307 274.349 264.235 272.783C263.626 269.5 257.235 271.456 256.804 267.17L256.804 266.968ZM243.983 269.346C241.829 267.263 236.985 266.811 236.551 263.733C238.705 265.815 243.549 266.267 243.983 269.346ZM203.044 237.628C204.143 238.782 205.506 239.691 205.415 241.551C204.316 240.396 198.764 241.641 200.925 240.1C201.585 240.29 202.293 238.996 203.044 237.628ZM290.795 293.36C287.321 290.496 281.158 289.261 279.404 285.4C282.878 288.265 289.041 289.499 290.795 293.36ZM307.687 303.371C305.533 301.288 300.689 300.836 300.255 297.757C302.409 299.84 307.253 300.292 307.687 303.371ZM314.728 306.234C313.848 305.712 310.852 306.456 310.769 303.887C312.264 304.874 314.381 303.308 314.728 306.234ZM318.438 301.076C320.679 303.614 327.011 308.274 331.324 309.923C328.148 312.373 315.344 306.196 318.438 301.076ZM150.526 203.984C157.476 208.305 163.159 207.742 168.386 214.569C161.256 211.956 154.57 208.094 150.526 203.984ZM337.309 312.26C335.719 314.542 340.567 313.082 337.654 316.193C335.671 316.328 335.062 312.742 337.309 312.26ZM273.587 265.83C274.73 266.709 275.919 266.608 277.155 265.426C271.964 262.551 269.068 257.307 262.243 256.588C265.447 261.712 270.208 259.797 273.059 265.517C269.574 268.289 263.767 265.149 258.972 262.107C261.008 257.569 262.623 264.472 264.567 261.694C260.215 257.301 254.183 256.749 250.666 253.456C252.999 254.032 255.422 253.554 257.709 255.111C258.461 253.843 258.683 252.967 258.861 252.064L273.245 260.589C275.504 254.572 277.25 261.955 279.37 259.281C278.492 258.055 275.1 258.262 275.941 256.04C277.661 255.145 279.379 254.652 281.098 254.159C280.002 251.494 278.687 248.498 275.302 245.786C274.51 245.216 270.505 243.649 272.841 243.118C279.261 247.73 283.395 250.683 290.698 254.91C287.603 260.634 284.973 254.44 282.063 255.94C286.636 259.859 291.7 259.938 292.833 266.051C292.085 265.91 291.906 266.912 291.728 267.915C287.547 266.646 286.363 263.728 282.752 263.805C302.587 277.273 331.641 284.515 344.337 300.302C342.841 299.416 341.391 297.851 339.71 301.289C343.494 303.128 346.004 303.507 348.593 307.763C342.701 303.263 338.03 304.223 333.151 299.82C332.532 301.065 332.838 302.154 331.562 301.397C315.904 291.11 300.15 284.394 285.904 273.13C287.4 273.513 288.943 273.217 290.53 272.143C285.112 272.459 277.011 271.487 273.499 265.778L273.587 265.83ZM219.964 234.051C220.624 234.241 221.283 235.035 221.99 234.043C226.301 236.597 228.983 238.691 224.451 236.71C223.703 236.368 222.738 234.587 221.457 236.145C222.733 236.599 223.172 237.464 222.332 239.183C219.999 238.405 220.621 235.851 220.008 234.077L219.964 234.051ZM241.966 243.362C244.426 246.835 253.805 247.557 254.369 251.922C252.344 251.527 250.457 247.991 248.384 249.584C256.393 252.919 234.772 250.989 242.054 243.314L241.966 243.362ZM82.987 150.354C80.923 147.418 75.8971 149.881 75.5528 145.949C77.5803 145.236 85.9382 150.189 82.987 150.354ZM117.487 164.654C118.235 164.896 121.183 166.642 118.936 166.722L108.027 160.256C107.143 161.647 106.215 163.515 105.38 162.416C104.062 161.03 102.039 159.328 99.4439 157.689C97.8163 156.724 88.4006 152.152 93.024 152.675C95.6241 151.898 97.9481 156.903 100.644 152.254C99.4132 151.222 92.1944 149.16 92.8193 145.097C93.7437 145.343 94.3645 143.292 94.4546 142.338C112.018 147.103 119.222 156.31 132.197 164.705C131.092 166.972 134.263 166.635 132.011 169.533C129.808 169.84 127.7 167.079 125.452 168.164C124.742 170.565 129.28 169.829 128.35 172.301C125.136 171.807 119.372 169.096 125.014 166.595C120.66 163.713 117.103 158.481 112.563 160.425C114.631 161.55 116.742 162.701 117.487 164.553L117.487 164.654ZM60.6709 122.316C61.2839 124.09 63.7929 124.771 61.9805 128.03C60.3549 126.059 58.5883 128.438 56.9165 127.548C59.26 123.092 60.7054 126.972 60.6709 122.316ZM312.325 275.184C315.093 278.538 320.876 271.888 321.925 275.936C319.192 277.138 311.48 279.017 312.325 275.184ZM77.0324 133.222C79.851 133.28 84.3392 135.335 83.4988 137.054C81.7374 136.917 75.2613 137.815 77.0324 133.222ZM309.862 273.724C309.026 273.229 309.028 272.223 309.471 270.974C316.73 274.671 315.055 275.492 309.862 273.724ZM300.153 261.723C303.282 260.756 307.377 261.268 307.724 263.691C303.931 266.38 303.59 261.14 300.153 261.723ZM328.187 272.19C328.495 272.373 328.67 272.678 328.14 273.372C327.392 273.23 327.214 274.233 327.035 275.236C321.27 273.23 317.353 271.816 311.109 267.007C316.491 262.84 325.146 272.807 327.128 272.772C326.601 272.459 327.44 271.344 328.143 272.164L328.187 272.19ZM113.152 131.149C111.042 128.891 108.793 130.279 106.683 128.524C108.975 127.464 115.628 126.469 113.152 131.149ZM105.513 119.165C116.606 122.011 130.675 133.775 139.78 139.473C128.424 136.068 118.402 126.602 109.379 123.975C108.495 125.467 110.433 125.305 109.769 126.726C109.067 125.604 105.851 125.915 106.825 123.772C111.626 123.292 104.672 121.085 105.469 119.24L105.513 119.165ZM125.724 121.268C120.575 119.224 108.335 117.411 106.853 110.084C114.377 113.435 121.022 116.365 125.724 121.268ZM98.0627 101.146C94.8459 101.96 93.1348 98.7295 90.9752 99.465C94.374 95.8363 96.0402 99.4437 98.0627 101.146ZM84.6297 79.6824C86.0786 81.8511 90.7089 79.0529 89.0701 83.5232C87.5722 83.7439 83.9205 81.8821 84.6297 79.6824ZM125.317 105.005C126.776 102.443 127.258 103.635 127.483 101.35C129.985 105.151 130.958 103.51 132.316 106.734C136.202 101.983 139.531 110.808 144.331 111.335C139.388 116.165 139.448 108.441 136.275 109.08C136.539 109.539 137.243 109.654 136.757 110.575C131.782 109.441 128.13 107.679 125.317 105.005ZM308.309 193.601C300.786 189.244 304.087 190.595 308.402 191.137C305.022 185.607 295.633 189.515 294.455 184.081C297.006 185.693 296.392 184.624 296.044 182.503C301.454 186.011 312.329 187.62 315.396 195.181C313.24 194.206 308.836 194.014 313.419 192.8C311.748 191.81 310.029 192.504 308.309 193.5L308.309 193.601ZM280.694 172.298C285.704 177.383 284.649 176.657 279.058 175.057C278.223 174.562 278.181 173.63 278.668 172.306C279.328 172.496 279.987 173.29 280.694 172.298ZM280.929 165.081C281.494 168.842 286.071 170.345 290.87 170.973L289.235 173.732C286.198 173.04 279.24 172.242 280.929 165.081ZM307.183 184.268C304.934 185.756 302.871 182.115 300.714 181.643C300.362 181.636 295.257 179.417 295.262 177.203C300.236 178.236 303.933 179.621 307.806 180.909C305.287 185.462 303.188 177.769 300.716 180.435L307.183 184.268ZM356.067 207.092C356.162 204.124 345.146 206.363 346.607 202.694C346.298 203.216 345.9 203.686 345.593 203.303C348.502 202.406 356.249 204.177 356.112 207.017L356.067 207.092ZM370.501 213.227C371.249 213.67 374.769 215.253 372.434 215.582L367.947 212.923C366.051 214.016 364.25 211.639 362.446 210.872C361.789 209.072 361.046 206.012 358.487 208.526C358.97 209.014 359.983 209.211 359.452 210.307C356.243 207.297 353.343 204.066 351.192 200.474C359.419 204.846 362.142 208.878 370.545 213.152L370.501 213.227ZM154.7 80.2974C154.079 82.7505 149.422 76.9678 147.129 78.3295C148.013 76.838 146.075 76.9994 146.738 75.5788L154.7 80.2974ZM120.479 58.8075C119.165 55.308 115.588 59.9396 115.025 55.5749C118.995 52.285 123.256 57.6318 124.969 60.2589C123.523 56.6812 115.803 62.3848 120.479 58.8075ZM129.065 60.1672C127.341 63.3776 132.01 62.719 131.389 65.2728C129.01 65.576 123.99 65.2208 123.424 61.7619C125.976 62.8714 126.163 57.5408 129.065 60.1672ZM146.971 69.5698C144.027 66.4141 138.3 66.7489 137.029 63.6781C137.69 63.8678 138.349 64.6615 139.055 63.6696C136.239 62.605 136.906 59.4734 136.25 57.0695C138.583 57.7467 140.914 59.229 143.34 57.5429C139.027 55.7932 134.765 50.849 130.405 51.0861C132.56 52.3635 137.355 55.2051 134.708 57.3648C132.424 54.3989 128.729 52.3097 128.958 47.8104C151.748 59.8048 165.292 69.9477 185.386 86.1892C177.24 85.4928 171.093 76.0057 164.005 74.7272C166.073 75.8518 168.14 76.9764 167.871 79.5374C163.558 77.7877 159.296 72.8435 154.935 73.0807C158.852 74.4951 159.638 77.7824 163.335 79.2677C158.97 81.5178 158.537 78.0364 155.577 82.1272C153.305 73.7264 141.41 75.2424 138.251 69.4403C138.911 69.7307 139.615 69.8459 140.367 68.1755C138.296 68.8625 133.584 68.5891 133.371 65.2382C137.157 65.9705 141.864 68.6593 146.927 69.5437L146.971 69.5698ZM274.239 141.265C268.205 141.619 268.789 135.718 263.767 136.268C269.234 133.462 273.578 141.277 274.239 141.265ZM301.556 157.454C298.785 155.812 297.298 150.598 294.171 150.659C297.342 150.624 302.487 154.681 305.611 156.23C321.714 164.06 341.504 178.408 354.791 185.375C338.152 180.855 316.381 166.039 301.512 157.529L301.556 157.454ZM355.847 185.901C358.968 188.758 362.847 186.926 364.776 191.193C361.997 193.375 355.09 189.584 355.847 185.901ZM194.962 76.9509C193.857 79.1172 192.892 77.1347 191.831 78.8238C176.047 65.9423 149.681 58.2775 136.715 44.9509C140.591 45.1315 144.325 49.9642 148.341 45.6939C140.117 39.9131 131.35 41.3678 124.313 36.3916C125.149 36.6856 125.984 37.7848 126.823 36.6698C128.635 33.4109 124.451 33.7524 126.528 30.348C128.201 30.3322 129.734 34.6665 131.592 30.8299C131.509 27.9597 126.973 27.69 125.172 25.816C145.816 31.6013 164.546 47.3366 181.972 54.5402C183.455 61.5659 199.657 64.3157 201.669 71.151C196.828 69.2898 192.172 63.1045 187.147 65.0641C191.446 73.6576 199.688 70.5817 201.873 78.729C199.586 77.3734 197.209 76.5695 194.83 77.074L194.962 76.9509ZM305.246 141.1C308.637 140.993 312.951 141.837 315.234 145.81C313.299 144.361 312.591 145.856 311.758 143.75C311.051 144.943 311.623 145.383 310.607 146.796C308.233 144.684 305.237 145.427 305.246 141.1ZM315.141 148.173C318.354 148.969 326.768 148.312 322.575 152.579C325.959 155.895 331.556 154.274 331.986 159.365C324.898 157.785 318.875 152.502 315.141 148.173ZM356.454 169.029C350.986 172.238 340.475 164.598 335.417 161.5C344.929 162.3 348.047 166.566 356.454 169.029ZM304.28 139.318C302.998 141.783 301.809 141.884 300.666 140.905C301.948 138.44 303.137 138.339 304.28 139.318ZM381.261 184.94C387.199 188.761 395.83 189.443 399.649 195.837C389.353 190.945 378.92 188.289 368.717 181.234C375.908 175.318 377.654 182.702 381.261 184.94ZM233.238 97.216C234.425 98.3225 240.103 99.7732 236.62 101.739C237.505 99.4428 230.938 101.698 233.238 97.216ZM170.669 46.5319C172.734 48.9649 173.89 43.6041 173.849 42.2696C177.849 46.2523 181.768 46.6602 184.709 51.1243C181.407 50.88 178.599 45.3871 174.237 46.1275C173.528 48.3271 176.347 48.3853 175.593 50.6595C174.319 49.4002 168.641 47.7482 170.669 46.5319ZM150.486 30.8422C153.133 28.3805 158.19 32.2843 158.978 34.6658C155.459 32.379 150.963 34.3495 150.486 30.8422ZM140.544 24.9504C139.134 25.3239 132.18 23.1172 135.62 20.8229C135.619 21.3261 147.806 27.4403 140.544 24.9504ZM193.637 57.6242C192.934 56.5025 189.719 56.8136 190.692 54.6698C192.456 53.599 194.39 55.4506 193.637 57.6242ZM169.841 42.3128C170.771 39.7402 161.482 37.7621 165.447 37.2903C167.601 39.3729 172.445 39.8251 172.879 42.9038C171.912 41.8271 170.807 43.8927 169.885 42.3388L169.841 42.3128ZM323.803 133.556C322.661 132.073 318.829 132.221 319.363 129.716C320.505 131.199 324.337 131.051 323.803 133.556ZM314.531 123.124C313.389 121.641 309.557 121.789 310.091 119.283C311.233 120.766 315.065 120.619 314.531 123.124ZM244.638 79.1833L246.273 76.4241C247.808 79.4501 253.048 80.2375 254.098 83.5806C250.18 82.7701 245.954 81.5758 244.638 79.1833ZM274.856 98.4015C272.131 95.3762 268.652 95.1283 266.94 92.5013C270.292 90.3561 275.216 94.685 274.856 98.4015ZM432.665 181.949C435.788 183.8 439.353 185.409 441.065 188.136C436.166 193.194 433.232 185.006 432.665 181.949ZM336.325 298.074C336.411 299.233 334.515 300.427 337.2 301.111C337.466 300.161 337.732 299.21 337.293 298.647C338 297.655 338.659 298.449 339.319 298.639C340.029 296.238 336.417 296.415 335.363 295.085C337.994 300.373 325.63 294.557 333.727 297.844C333.859 297.922 334.295 300.498 336.237 298.122L336.325 298.074ZM38.7549 71.0365C37.2579 70.8547 35.1906 69.5287 34.7959 68.6903C32.5915 69.8022 37.0313 73.9449 38.7549 71.0365ZM126.936 88.6321C126.936 88.6321 128.126 88.5309 127.467 87.7372C124.347 84.0747 117.259 82.8968 123.461 86.5726C124.341 87.094 125.308 88.1708 126.936 88.6321ZM51.5839 0.645584C51.2733 1.77148 55.2368 1.90356 56.5547 3.59145C58.1474 0.101597 53.2127 1.0063 51.5839 0.645584ZM74.9023 55.2757C77.855 54.4056 74.6882 52.3273 73.5439 51.9514C74.6492 49.8858 75.5686 52.5468 76.5376 52.5164C76.7158 51.5136 76.8941 50.5108 77.6425 50.652C76.1892 50.5969 71.5747 45.7461 69.4919 51.9685C68.9636 51.8569 69.229 51.3089 69.5384 50.7868C67.5037 55.0224 73.5467 50.5424 74.9905 55.2272L74.9023 55.2757Z" fill="url(#paint0_linear_215_999)"/>
<defs>
<linearGradient id="paint0_linear_215_999" x1="22.0191" y1="49.4292" x2="404.417" y2="276.052" gradientUnits="userSpaceOnUse">
<stop stop-color="#34873C"/>
<stop offset="1" stop-color="#B3CD36"/>
</linearGradient>
</defs>
</svg>
